<mxfile host="app.diagrams.net" modified="2023-08-15T16:44:00.488Z" agent="Mozilla/5.0 (Windows NT 10.0; Win64; x64) AppleWebKit/537.36 (KHTML, like Gecko) Chrome/115.0.0.0 Safari/537.36" etag="9vZ2KV9VtCK0jaVjYXer" version="21.6.8" type="github" pages="8">
  <diagram name="Diagramme de cas d&#39;utilisation" id="TPGhh4am8tINts9Qbtvu">
    <mxGraphModel dx="2314" dy="1150" grid="1" gridSize="10" guides="1" tooltips="1" connect="1" arrows="1" fold="1" page="1" pageScale="1" pageWidth="827" pageHeight="1169" math="0" shadow="0">
      <root>
        <mxCell id="0" />
        <mxCell id="1" parent="0" />
        <mxCell id="3RLkiiwQndXkzGBxV8hR-5" value="" style="group" parent="1" vertex="1" connectable="0">
          <mxGeometry x="410" y="50" width="610" height="1000" as="geometry" />
        </mxCell>
        <mxCell id="3RLkiiwQndXkzGBxV8hR-7" value="" style="group" parent="3RLkiiwQndXkzGBxV8hR-5" vertex="1" connectable="0">
          <mxGeometry width="610" height="1000.0000000000001" as="geometry" />
        </mxCell>
        <mxCell id="3RLkiiwQndXkzGBxV8hR-1" value="" style="rounded=0;whiteSpace=wrap;html=1;movable=1;resizable=1;rotatable=1;deletable=1;editable=1;locked=0;connectable=1;" parent="3RLkiiwQndXkzGBxV8hR-7" vertex="1">
          <mxGeometry width="610" height="1000.0000000000001" as="geometry" />
        </mxCell>
        <mxCell id="3RLkiiwQndXkzGBxV8hR-4" value="&lt;font style=&quot;font-size: 14px;&quot;&gt;&lt;b&gt;Système Tâches Gourmandes&lt;/b&gt;&lt;/font&gt;" style="text;html=1;strokeColor=none;fillColor=none;align=center;verticalAlign=middle;whiteSpace=wrap;rounded=0;movable=1;resizable=1;rotatable=1;deletable=1;editable=1;locked=0;connectable=1;" parent="3RLkiiwQndXkzGBxV8hR-7" vertex="1">
          <mxGeometry x="180.18137931034482" width="249.63724137931035" height="32.96703296703297" as="geometry" />
        </mxCell>
        <mxCell id="RQUEWbMHJ4e_SQlwrDw5-1" value="&lt;font style=&quot;font-size: 14px;&quot;&gt;Se connecter&lt;/font&gt;" style="ellipse;whiteSpace=wrap;html=1;" parent="3RLkiiwQndXkzGBxV8hR-7" vertex="1">
          <mxGeometry x="241.89655172413794" y="170.00318681318683" width="126.20689655172414" height="87.91208791208791" as="geometry" />
        </mxCell>
        <mxCell id="RQUEWbMHJ4e_SQlwrDw5-2" value="&lt;font style=&quot;font-size: 14px;&quot;&gt;S&#39;inscrire&lt;/font&gt;" style="ellipse;whiteSpace=wrap;html=1;" parent="3RLkiiwQndXkzGBxV8hR-7" vertex="1">
          <mxGeometry x="241.89655172413794" y="59.995054945054946" width="126.20689655172414" height="87.91208791208791" as="geometry" />
        </mxCell>
        <mxCell id="RQUEWbMHJ4e_SQlwrDw5-3" value="&lt;font style=&quot;font-size: 14px;&quot;&gt;Se déconnecter&lt;/font&gt;" style="ellipse;whiteSpace=wrap;html=1;" parent="3RLkiiwQndXkzGBxV8hR-7" vertex="1">
          <mxGeometry x="389.81517241379316" y="310.00230769230774" width="126.20689655172414" height="87.91208791208791" as="geometry" />
        </mxCell>
        <mxCell id="RQUEWbMHJ4e_SQlwrDw5-4" value="&lt;font style=&quot;font-size: 14px;&quot;&gt;&amp;lt;&amp;lt;include&amp;gt;&amp;gt;&lt;/font&gt;" style="html=1;verticalAlign=bottom;endArrow=open;dashed=1;endSize=8;edgeStyle=elbowEdgeStyle;elbow=vertical;curved=0;rounded=0;entryX=1;entryY=1;entryDx=0;entryDy=0;exitX=0.5;exitY=0;exitDx=0;exitDy=0;" parent="3RLkiiwQndXkzGBxV8hR-7" source="RQUEWbMHJ4e_SQlwrDw5-3" target="RQUEWbMHJ4e_SQlwrDw5-1" edge="1">
          <mxGeometry relative="1" as="geometry">
            <mxPoint x="473.2758620689655" y="241.20879120879124" as="sourcePoint" />
            <mxPoint x="389.13793103448273" y="241.20879120879124" as="targetPoint" />
          </mxGeometry>
        </mxCell>
        <mxCell id="RQUEWbMHJ4e_SQlwrDw5-5" value="&lt;font style=&quot;font-size: 14px;&quot;&gt;Supprimer une recette&lt;/font&gt;" style="ellipse;whiteSpace=wrap;html=1;" parent="3RLkiiwQndXkzGBxV8hR-7" vertex="1">
          <mxGeometry x="323.4489655172414" y="500.8764835164836" width="126.20689655172414" height="87.91208791208791" as="geometry" />
        </mxCell>
        <mxCell id="RQUEWbMHJ4e_SQlwrDw5-6" value="&lt;font style=&quot;font-size: 14px;&quot;&gt;Voir les recettes&lt;/font&gt;" style="ellipse;whiteSpace=wrap;html=1;" parent="3RLkiiwQndXkzGBxV8hR-7" vertex="1">
          <mxGeometry x="186.7248275862069" y="379.9973626373627" width="126.20689655172414" height="87.91208791208791" as="geometry" />
        </mxCell>
        <mxCell id="RQUEWbMHJ4e_SQlwrDw5-7" value="&lt;font style=&quot;font-size: 14px;&quot;&gt;&amp;lt;&amp;lt;extend&amp;gt;&amp;gt;&lt;/font&gt;" style="html=1;verticalAlign=bottom;endArrow=open;dashed=1;endSize=8;edgeStyle=elbowEdgeStyle;elbow=vertical;curved=0;rounded=0;entryX=1;entryY=1;entryDx=0;entryDy=0;exitX=0.5;exitY=0;exitDx=0;exitDy=0;" parent="3RLkiiwQndXkzGBxV8hR-7" source="RQUEWbMHJ4e_SQlwrDw5-5" target="RQUEWbMHJ4e_SQlwrDw5-6" edge="1">
          <mxGeometry relative="1" as="geometry">
            <mxPoint x="399.6551724137931" y="474.72527472527474" as="sourcePoint" />
            <mxPoint x="286.0689655172414" y="428.5714285714286" as="targetPoint" />
          </mxGeometry>
        </mxCell>
        <mxCell id="RQUEWbMHJ4e_SQlwrDw5-13" value="&lt;font style=&quot;font-size: 14px;&quot;&gt;Créer une recette&lt;/font&gt;" style="ellipse;whiteSpace=wrap;html=1;" parent="3RLkiiwQndXkzGBxV8hR-7" vertex="1">
          <mxGeometry x="50.00068965517241" y="500.8764835164836" width="126.20689655172414" height="87.91208791208791" as="geometry" />
        </mxCell>
        <mxCell id="RQUEWbMHJ4e_SQlwrDw5-14" value="&lt;font style=&quot;font-size: 14px;&quot;&gt;&amp;lt;&amp;lt;extend&amp;gt;&amp;gt;&lt;/font&gt;" style="html=1;verticalAlign=bottom;endArrow=open;dashed=1;endSize=8;edgeStyle=elbowEdgeStyle;elbow=vertical;curved=0;rounded=0;entryX=0;entryY=1;entryDx=0;entryDy=0;exitX=0.5;exitY=0;exitDx=0;exitDy=0;" parent="3RLkiiwQndXkzGBxV8hR-7" source="RQUEWbMHJ4e_SQlwrDw5-13" target="RQUEWbMHJ4e_SQlwrDw5-6" edge="1">
          <mxGeometry relative="1" as="geometry">
            <mxPoint x="145.13793103448276" y="470.32967032967036" as="sourcePoint" />
            <mxPoint x="63.10344827586207" y="432.967032967033" as="targetPoint" />
          </mxGeometry>
        </mxCell>
        <mxCell id="RQUEWbMHJ4e_SQlwrDw5-15" value="&lt;font style=&quot;font-size: 14px;&quot;&gt;Supprimer une tâche&lt;/font&gt;" style="ellipse;whiteSpace=wrap;html=1;" parent="3RLkiiwQndXkzGBxV8hR-7" vertex="1">
          <mxGeometry x="323.4489655172414" y="738.2412087912089" width="126.20689655172414" height="87.91208791208791" as="geometry" />
        </mxCell>
        <mxCell id="RQUEWbMHJ4e_SQlwrDw5-16" value="&lt;span style=&quot;font-size: 14px;&quot;&gt;Voir les tâches d&#39;une recette&lt;/span&gt;" style="ellipse;whiteSpace=wrap;html=1;" parent="3RLkiiwQndXkzGBxV8hR-7" vertex="1">
          <mxGeometry x="186.7248275862069" y="617.362087912088" width="126.20689655172414" height="87.91208791208791" as="geometry" />
        </mxCell>
        <mxCell id="RQUEWbMHJ4e_SQlwrDw5-17" value="&lt;font style=&quot;font-size: 14px;&quot;&gt;&amp;lt;&amp;lt;extend&amp;gt;&amp;gt;&lt;/font&gt;" style="html=1;verticalAlign=bottom;endArrow=open;dashed=1;endSize=8;edgeStyle=elbowEdgeStyle;elbow=vertical;curved=0;rounded=0;entryX=1;entryY=1;entryDx=0;entryDy=0;exitX=0.5;exitY=0;exitDx=0;exitDy=0;" parent="3RLkiiwQndXkzGBxV8hR-7" source="RQUEWbMHJ4e_SQlwrDw5-15" target="RQUEWbMHJ4e_SQlwrDw5-16" edge="1">
          <mxGeometry relative="1" as="geometry">
            <mxPoint x="410.17241379310343" y="700.0000000000001" as="sourcePoint" />
            <mxPoint x="296.58620689655174" y="653.8461538461539" as="targetPoint" />
          </mxGeometry>
        </mxCell>
        <mxCell id="RQUEWbMHJ4e_SQlwrDw5-18" value="&lt;font style=&quot;font-size: 14px;&quot;&gt;Créer une tâche&lt;/font&gt;" style="ellipse;whiteSpace=wrap;html=1;" parent="3RLkiiwQndXkzGBxV8hR-7" vertex="1">
          <mxGeometry x="50.00068965517241" y="738.2412087912089" width="126.20689655172414" height="87.91208791208791" as="geometry" />
        </mxCell>
        <mxCell id="RQUEWbMHJ4e_SQlwrDw5-19" value="&lt;font style=&quot;font-size: 14px;&quot;&gt;&amp;lt;&amp;lt;extend&amp;gt;&amp;gt;&lt;/font&gt;" style="html=1;verticalAlign=bottom;endArrow=open;dashed=1;endSize=8;edgeStyle=elbowEdgeStyle;elbow=vertical;curved=0;rounded=0;entryX=0;entryY=1;entryDx=0;entryDy=0;exitX=0.5;exitY=0;exitDx=0;exitDy=0;" parent="3RLkiiwQndXkzGBxV8hR-7" source="RQUEWbMHJ4e_SQlwrDw5-18" target="RQUEWbMHJ4e_SQlwrDw5-16" edge="1">
          <mxGeometry relative="1" as="geometry">
            <mxPoint x="155.6551724137931" y="695.6043956043957" as="sourcePoint" />
            <mxPoint x="73.62068965517241" y="658.2417582417582" as="targetPoint" />
          </mxGeometry>
        </mxCell>
        <mxCell id="RQUEWbMHJ4e_SQlwrDw5-20" value="&lt;font style=&quot;font-size: 14px;&quot;&gt;&amp;lt;&amp;lt;extend&amp;gt;&amp;gt;&lt;/font&gt;" style="html=1;verticalAlign=bottom;endArrow=open;dashed=1;endSize=8;edgeStyle=elbowEdgeStyle;elbow=vertical;curved=0;rounded=0;entryX=0.5;entryY=1;entryDx=0;entryDy=0;exitX=0.5;exitY=0;exitDx=0;exitDy=0;" parent="3RLkiiwQndXkzGBxV8hR-7" source="RQUEWbMHJ4e_SQlwrDw5-16" target="RQUEWbMHJ4e_SQlwrDw5-6" edge="1">
          <mxGeometry relative="1" as="geometry">
            <mxPoint x="431.2068965517241" y="719.7802197802198" as="sourcePoint" />
            <mxPoint x="338.6551724137931" y="673.6263736263737" as="targetPoint" />
          </mxGeometry>
        </mxCell>
        <mxCell id="RQUEWbMHJ4e_SQlwrDw5-28" value="&lt;font style=&quot;font-size: 14px;&quot;&gt;Voir le diagramme de Gantt des tâches&lt;/font&gt;" style="ellipse;whiteSpace=wrap;html=1;" parent="3RLkiiwQndXkzGBxV8hR-7" vertex="1">
          <mxGeometry x="165" y="860" width="169.65" height="87.91" as="geometry" />
        </mxCell>
        <mxCell id="RQUEWbMHJ4e_SQlwrDw5-29" value="&lt;font style=&quot;font-size: 14px;&quot;&gt;&amp;lt;&amp;lt;extend&amp;gt;&amp;gt;&lt;/font&gt;" style="html=1;verticalAlign=bottom;endArrow=open;dashed=1;endSize=8;edgeStyle=elbowEdgeStyle;elbow=vertical;curved=0;rounded=0;exitX=0.5;exitY=0;exitDx=0;exitDy=0;" parent="3RLkiiwQndXkzGBxV8hR-7" source="RQUEWbMHJ4e_SQlwrDw5-28" target="RQUEWbMHJ4e_SQlwrDw5-16" edge="1">
          <mxGeometry relative="1" as="geometry">
            <mxPoint x="283" y="598" as="sourcePoint" />
            <mxPoint x="283" y="461" as="targetPoint" />
          </mxGeometry>
        </mxCell>
        <mxCell id="RQUEWbMHJ4e_SQlwrDw5-34" value="&lt;font style=&quot;font-size: 14px;&quot;&gt;&amp;lt;&amp;lt;include&amp;gt;&amp;gt;&lt;/font&gt;" style="html=1;verticalAlign=bottom;endArrow=open;dashed=1;endSize=8;edgeStyle=elbowEdgeStyle;elbow=vertical;curved=0;rounded=0;entryX=0;entryY=1;entryDx=0;entryDy=0;exitX=0.5;exitY=0;exitDx=0;exitDy=0;" parent="3RLkiiwQndXkzGBxV8hR-7" source="RQUEWbMHJ4e_SQlwrDw5-6" target="RQUEWbMHJ4e_SQlwrDw5-1" edge="1">
          <mxGeometry relative="1" as="geometry">
            <mxPoint x="315" y="610" as="sourcePoint" />
            <mxPoint x="315" y="461" as="targetPoint" />
          </mxGeometry>
        </mxCell>
        <mxCell id="RQUEWbMHJ4e_SQlwrDw5-35" value="&lt;span style=&quot;font-size: 14px;&quot;&gt;Gestion des comptes d&#39;utilisateurs&lt;/span&gt;" style="ellipse;whiteSpace=wrap;html=1;" parent="3RLkiiwQndXkzGBxV8hR-7" vertex="1">
          <mxGeometry x="459.9951724137931" y="617.3623076923077" width="126.20689655172414" height="87.91208791208791" as="geometry" />
        </mxCell>
        <mxCell id="RQUEWbMHJ4e_SQlwrDw5-36" value="&lt;font style=&quot;font-size: 14px;&quot;&gt;&amp;lt;&amp;lt;include&amp;gt;&amp;gt;&lt;/font&gt;" style="html=1;verticalAlign=bottom;endArrow=open;dashed=1;endSize=8;edgeStyle=elbowEdgeStyle;elbow=vertical;curved=0;rounded=0;entryX=0.688;entryY=0.978;entryDx=0;entryDy=0;exitX=0.5;exitY=0;exitDx=0;exitDy=0;entryPerimeter=0;" parent="3RLkiiwQndXkzGBxV8hR-7" source="RQUEWbMHJ4e_SQlwrDw5-35" target="RQUEWbMHJ4e_SQlwrDw5-1" edge="1">
          <mxGeometry x="0.0453" relative="1" as="geometry">
            <mxPoint x="540.2758620689656" y="378.20879120879124" as="sourcePoint" />
            <mxPoint x="417" y="382" as="targetPoint" />
            <Array as="points">
              <mxPoint x="410" y="430" />
              <mxPoint x="360" y="420" />
              <mxPoint x="420" y="420" />
            </Array>
            <mxPoint as="offset" />
          </mxGeometry>
        </mxCell>
        <mxCell id="RQUEWbMHJ4e_SQlwrDw5-22" value="&lt;font style=&quot;font-size: 14px;&quot;&gt;Utilisateurs&lt;/font&gt;" style="shape=umlActor;verticalLabelPosition=bottom;verticalAlign=top;html=1;outlineConnect=0;" parent="1" vertex="1">
          <mxGeometry x="200" y="260" width="70" height="160" as="geometry" />
        </mxCell>
        <mxCell id="RQUEWbMHJ4e_SQlwrDw5-25" value="" style="endArrow=none;html=1;rounded=0;entryX=0;entryY=0.5;entryDx=0;entryDy=0;" parent="1" source="RQUEWbMHJ4e_SQlwrDw5-22" target="RQUEWbMHJ4e_SQlwrDw5-2" edge="1">
          <mxGeometry width="50" height="50" relative="1" as="geometry">
            <mxPoint x="680" y="570" as="sourcePoint" />
            <mxPoint x="730" y="520" as="targetPoint" />
          </mxGeometry>
        </mxCell>
        <mxCell id="RQUEWbMHJ4e_SQlwrDw5-27" value="" style="endArrow=none;html=1;rounded=0;entryX=0;entryY=0.5;entryDx=0;entryDy=0;" parent="1" source="RQUEWbMHJ4e_SQlwrDw5-22" target="RQUEWbMHJ4e_SQlwrDw5-1" edge="1">
          <mxGeometry width="50" height="50" relative="1" as="geometry">
            <mxPoint x="280" y="520" as="sourcePoint" />
            <mxPoint x="662" y="159" as="targetPoint" />
          </mxGeometry>
        </mxCell>
        <mxCell id="RQUEWbMHJ4e_SQlwrDw5-37" value="" style="endArrow=none;html=1;rounded=0;entryX=0;entryY=0.5;entryDx=0;entryDy=0;" parent="1" source="RQUEWbMHJ4e_SQlwrDw5-22" target="RQUEWbMHJ4e_SQlwrDw5-6" edge="1">
          <mxGeometry width="50" height="50" relative="1" as="geometry">
            <mxPoint x="340" y="550" as="sourcePoint" />
            <mxPoint x="662" y="274" as="targetPoint" />
          </mxGeometry>
        </mxCell>
        <mxCell id="RQUEWbMHJ4e_SQlwrDw5-38" value="" style="endArrow=none;html=1;rounded=0;entryX=0;entryY=0.5;entryDx=0;entryDy=0;" parent="1" source="RQUEWbMHJ4e_SQlwrDw5-22" target="RQUEWbMHJ4e_SQlwrDw5-16" edge="1">
          <mxGeometry width="50" height="50" relative="1" as="geometry">
            <mxPoint x="290" y="570" as="sourcePoint" />
            <mxPoint x="672" y="284" as="targetPoint" />
            <Array as="points">
              <mxPoint x="390" y="610" />
            </Array>
          </mxGeometry>
        </mxCell>
        <mxCell id="RQUEWbMHJ4e_SQlwrDw5-39" value="" style="endArrow=none;html=1;rounded=0;entryX=0;entryY=0.5;entryDx=0;entryDy=0;" parent="1" target="RQUEWbMHJ4e_SQlwrDw5-28" edge="1">
          <mxGeometry width="50" height="50" relative="1" as="geometry">
            <mxPoint x="260" y="420" as="sourcePoint" />
            <mxPoint x="682" y="294" as="targetPoint" />
            <Array as="points">
              <mxPoint x="280" y="440" />
              <mxPoint x="300" y="480" />
              <mxPoint x="390" y="870" />
            </Array>
          </mxGeometry>
        </mxCell>
        <mxCell id="RQUEWbMHJ4e_SQlwrDw5-40" value="" style="endArrow=none;html=1;rounded=0;entryX=0;entryY=0.5;entryDx=0;entryDy=0;" parent="1" source="RQUEWbMHJ4e_SQlwrDw5-22" target="RQUEWbMHJ4e_SQlwrDw5-3" edge="1">
          <mxGeometry width="50" height="50" relative="1" as="geometry">
            <mxPoint x="330" y="520" as="sourcePoint" />
            <mxPoint x="692" y="304" as="targetPoint" />
            <Array as="points">
              <mxPoint x="530" y="410" />
            </Array>
          </mxGeometry>
        </mxCell>
        <mxCell id="KpsrMKnV9AJNdFMUsy8O-1" value="&lt;font style=&quot;font-size: 14px;&quot;&gt;Administrateurs&lt;/font&gt;" style="shape=umlActor;verticalLabelPosition=bottom;verticalAlign=top;html=1;outlineConnect=0;" parent="1" vertex="1">
          <mxGeometry x="200" y="610" width="70" height="160" as="geometry" />
        </mxCell>
        <mxCell id="KpsrMKnV9AJNdFMUsy8O-2" value="" style="endArrow=block;endSize=16;endFill=0;html=1;rounded=0;exitX=0.5;exitY=0;exitDx=0;exitDy=0;exitPerimeter=0;" parent="1" source="KpsrMKnV9AJNdFMUsy8O-1" edge="1">
          <mxGeometry width="160" relative="1" as="geometry">
            <mxPoint x="760" y="600" as="sourcePoint" />
            <mxPoint x="235" y="450" as="targetPoint" />
          </mxGeometry>
        </mxCell>
        <mxCell id="KpsrMKnV9AJNdFMUsy8O-3" value="" style="endArrow=none;html=1;rounded=0;entryX=0;entryY=0;entryDx=0;entryDy=0;" parent="1" source="KpsrMKnV9AJNdFMUsy8O-1" target="RQUEWbMHJ4e_SQlwrDw5-35" edge="1">
          <mxGeometry width="50" height="50" relative="1" as="geometry">
            <mxPoint x="280" y="334" as="sourcePoint" />
            <mxPoint x="662" y="164" as="targetPoint" />
            <Array as="points">
              <mxPoint x="610" y="650" />
              <mxPoint x="750" y="650" />
            </Array>
          </mxGeometry>
        </mxCell>
      </root>
    </mxGraphModel>
  </diagram>
  <diagram id="9RJkqhC9HRtWjLq738TG" name="Diagramme de classe">
    <mxGraphModel dx="2314" dy="1156" grid="1" gridSize="10" guides="1" tooltips="1" connect="1" arrows="1" fold="1" page="1" pageScale="1" pageWidth="827" pageHeight="1169" math="0" shadow="0">
      <root>
        <mxCell id="0" />
        <mxCell id="1" parent="0" />
        <mxCell id="RY8UhwLNGJPvQsrLVs4e-1" value="Utilisateurs" style="swimlane;fontStyle=1;align=center;verticalAlign=top;childLayout=stackLayout;horizontal=1;startSize=26;horizontalStack=0;resizeParent=1;resizeParentMax=0;resizeLast=0;collapsible=1;marginBottom=0;whiteSpace=wrap;html=1;" parent="1" vertex="1">
          <mxGeometry x="310" y="150" width="160" height="320" as="geometry" />
        </mxCell>
        <mxCell id="RY8UhwLNGJPvQsrLVs4e-38" value="+ id_utilisateur: INT" style="text;strokeColor=none;fillColor=none;align=left;verticalAlign=top;spacingLeft=4;spacingRight=4;overflow=hidden;rotatable=0;points=[[0,0.5],[1,0.5]];portConstraint=eastwest;whiteSpace=wrap;html=1;" parent="RY8UhwLNGJPvQsrLVs4e-1" vertex="1">
          <mxGeometry y="26" width="160" height="26" as="geometry" />
        </mxCell>
        <mxCell id="RY8UhwLNGJPvQsrLVs4e-39" value="+ genre: VARCHAR" style="text;strokeColor=none;fillColor=none;align=left;verticalAlign=top;spacingLeft=4;spacingRight=4;overflow=hidden;rotatable=0;points=[[0,0.5],[1,0.5]];portConstraint=eastwest;whiteSpace=wrap;html=1;" parent="RY8UhwLNGJPvQsrLVs4e-1" vertex="1">
          <mxGeometry y="52" width="160" height="26" as="geometry" />
        </mxCell>
        <mxCell id="RY8UhwLNGJPvQsrLVs4e-40" value="+ nom: VARCHAR" style="text;strokeColor=none;fillColor=none;align=left;verticalAlign=top;spacingLeft=4;spacingRight=4;overflow=hidden;rotatable=0;points=[[0,0.5],[1,0.5]];portConstraint=eastwest;whiteSpace=wrap;html=1;" parent="RY8UhwLNGJPvQsrLVs4e-1" vertex="1">
          <mxGeometry y="78" width="160" height="26" as="geometry" />
        </mxCell>
        <mxCell id="RY8UhwLNGJPvQsrLVs4e-41" value="+ prenom: VARCHAR" style="text;strokeColor=none;fillColor=none;align=left;verticalAlign=top;spacingLeft=4;spacingRight=4;overflow=hidden;rotatable=0;points=[[0,0.5],[1,0.5]];portConstraint=eastwest;whiteSpace=wrap;html=1;" parent="RY8UhwLNGJPvQsrLVs4e-1" vertex="1">
          <mxGeometry y="104" width="160" height="26" as="geometry" />
        </mxCell>
        <mxCell id="RY8UhwLNGJPvQsrLVs4e-42" value="+ email: VARCHAR" style="text;strokeColor=none;fillColor=none;align=left;verticalAlign=top;spacingLeft=4;spacingRight=4;overflow=hidden;rotatable=0;points=[[0,0.5],[1,0.5]];portConstraint=eastwest;whiteSpace=wrap;html=1;" parent="RY8UhwLNGJPvQsrLVs4e-1" vertex="1">
          <mxGeometry y="130" width="160" height="26" as="geometry" />
        </mxCell>
        <mxCell id="RY8UhwLNGJPvQsrLVs4e-43" value="+ tel: VARCHAR" style="text;strokeColor=none;fillColor=none;align=left;verticalAlign=top;spacingLeft=4;spacingRight=4;overflow=hidden;rotatable=0;points=[[0,0.5],[1,0.5]];portConstraint=eastwest;whiteSpace=wrap;html=1;" parent="RY8UhwLNGJPvQsrLVs4e-1" vertex="1">
          <mxGeometry y="156" width="160" height="26" as="geometry" />
        </mxCell>
        <mxCell id="RY8UhwLNGJPvQsrLVs4e-44" value="+ role: VARCHAR" style="text;strokeColor=none;fillColor=none;align=left;verticalAlign=top;spacingLeft=4;spacingRight=4;overflow=hidden;rotatable=0;points=[[0,0.5],[1,0.5]];portConstraint=eastwest;whiteSpace=wrap;html=1;" parent="RY8UhwLNGJPvQsrLVs4e-1" vertex="1">
          <mxGeometry y="182" width="160" height="26" as="geometry" />
        </mxCell>
        <mxCell id="RY8UhwLNGJPvQsrLVs4e-59" value="+ mdp: TEXT" style="text;strokeColor=none;fillColor=none;align=left;verticalAlign=top;spacingLeft=4;spacingRight=4;overflow=hidden;rotatable=0;points=[[0,0.5],[1,0.5]];portConstraint=eastwest;whiteSpace=wrap;html=1;" parent="RY8UhwLNGJPvQsrLVs4e-1" vertex="1">
          <mxGeometry y="208" width="160" height="26" as="geometry" />
        </mxCell>
        <mxCell id="RY8UhwLNGJPvQsrLVs4e-58" value="+ creation: DATE" style="text;strokeColor=none;fillColor=none;align=left;verticalAlign=top;spacingLeft=4;spacingRight=4;overflow=hidden;rotatable=0;points=[[0,0.5],[1,0.5]];portConstraint=eastwest;whiteSpace=wrap;html=1;" parent="RY8UhwLNGJPvQsrLVs4e-1" vertex="1">
          <mxGeometry y="234" width="160" height="26" as="geometry" />
        </mxCell>
        <mxCell id="RY8UhwLNGJPvQsrLVs4e-57" value="+ mise_a_jour: DATE" style="text;strokeColor=none;fillColor=none;align=left;verticalAlign=top;spacingLeft=4;spacingRight=4;overflow=hidden;rotatable=0;points=[[0,0.5],[1,0.5]];portConstraint=eastwest;whiteSpace=wrap;html=1;" parent="RY8UhwLNGJPvQsrLVs4e-1" vertex="1">
          <mxGeometry y="260" width="160" height="26" as="geometry" />
        </mxCell>
        <mxCell id="RY8UhwLNGJPvQsrLVs4e-63" value="+ status: VARCHAR" style="text;strokeColor=none;fillColor=none;align=left;verticalAlign=top;spacingLeft=4;spacingRight=4;overflow=hidden;rotatable=0;points=[[0,0.5],[1,0.5]];portConstraint=eastwest;whiteSpace=wrap;html=1;" parent="RY8UhwLNGJPvQsrLVs4e-1" vertex="1">
          <mxGeometry y="286" width="160" height="26" as="geometry" />
        </mxCell>
        <mxCell id="RY8UhwLNGJPvQsrLVs4e-3" value="" style="line;strokeWidth=1;fillColor=none;align=left;verticalAlign=middle;spacingTop=-1;spacingLeft=3;spacingRight=3;rotatable=0;labelPosition=right;points=[];portConstraint=eastwest;strokeColor=inherit;" parent="RY8UhwLNGJPvQsrLVs4e-1" vertex="1">
          <mxGeometry y="312" width="160" height="8" as="geometry" />
        </mxCell>
        <mxCell id="RY8UhwLNGJPvQsrLVs4e-64" value="Recettes" style="swimlane;fontStyle=1;align=center;verticalAlign=top;childLayout=stackLayout;horizontal=1;startSize=26;horizontalStack=0;resizeParent=1;resizeParentMax=0;resizeLast=0;collapsible=1;marginBottom=0;whiteSpace=wrap;html=1;" parent="1" vertex="1">
          <mxGeometry x="130" y="530" width="160" height="190" as="geometry" />
        </mxCell>
        <mxCell id="RY8UhwLNGJPvQsrLVs4e-65" value="+ id_recette: INT" style="text;strokeColor=none;fillColor=none;align=left;verticalAlign=top;spacingLeft=4;spacingRight=4;overflow=hidden;rotatable=0;points=[[0,0.5],[1,0.5]];portConstraint=eastwest;whiteSpace=wrap;html=1;" parent="RY8UhwLNGJPvQsrLVs4e-64" vertex="1">
          <mxGeometry y="26" width="160" height="26" as="geometry" />
        </mxCell>
        <mxCell id="RY8UhwLNGJPvQsrLVs4e-67" value="+ nom: TEXT" style="text;strokeColor=none;fillColor=none;align=left;verticalAlign=top;spacingLeft=4;spacingRight=4;overflow=hidden;rotatable=0;points=[[0,0.5],[1,0.5]];portConstraint=eastwest;whiteSpace=wrap;html=1;" parent="RY8UhwLNGJPvQsrLVs4e-64" vertex="1">
          <mxGeometry y="52" width="160" height="26" as="geometry" />
        </mxCell>
        <mxCell id="RY8UhwLNGJPvQsrLVs4e-68" value="+ type: VARCHAR" style="text;strokeColor=none;fillColor=none;align=left;verticalAlign=top;spacingLeft=4;spacingRight=4;overflow=hidden;rotatable=0;points=[[0,0.5],[1,0.5]];portConstraint=eastwest;whiteSpace=wrap;html=1;" parent="RY8UhwLNGJPvQsrLVs4e-64" vertex="1">
          <mxGeometry y="78" width="160" height="26" as="geometry" />
        </mxCell>
        <mxCell id="RY8UhwLNGJPvQsrLVs4e-71" value="+ description: TEXT" style="text;strokeColor=none;fillColor=none;align=left;verticalAlign=top;spacingLeft=4;spacingRight=4;overflow=hidden;rotatable=0;points=[[0,0.5],[1,0.5]];portConstraint=eastwest;whiteSpace=wrap;html=1;" parent="RY8UhwLNGJPvQsrLVs4e-64" vertex="1">
          <mxGeometry y="104" width="160" height="26" as="geometry" />
        </mxCell>
        <mxCell id="RY8UhwLNGJPvQsrLVs4e-90" value="+ utilisateur_id: INT" style="text;strokeColor=none;fillColor=none;align=left;verticalAlign=top;spacingLeft=4;spacingRight=4;overflow=hidden;rotatable=0;points=[[0,0.5],[1,0.5]];portConstraint=eastwest;whiteSpace=wrap;html=1;" parent="RY8UhwLNGJPvQsrLVs4e-64" vertex="1">
          <mxGeometry y="130" width="160" height="26" as="geometry" />
        </mxCell>
        <mxCell id="RY8UhwLNGJPvQsrLVs4e-73" value="+ creation: DATE" style="text;strokeColor=none;fillColor=none;align=left;verticalAlign=top;spacingLeft=4;spacingRight=4;overflow=hidden;rotatable=0;points=[[0,0.5],[1,0.5]];portConstraint=eastwest;whiteSpace=wrap;html=1;" parent="RY8UhwLNGJPvQsrLVs4e-64" vertex="1">
          <mxGeometry y="156" width="160" height="26" as="geometry" />
        </mxCell>
        <mxCell id="RY8UhwLNGJPvQsrLVs4e-76" value="" style="line;strokeWidth=1;fillColor=none;align=left;verticalAlign=middle;spacingTop=-1;spacingLeft=3;spacingRight=3;rotatable=0;labelPosition=right;points=[];portConstraint=eastwest;strokeColor=inherit;" parent="RY8UhwLNGJPvQsrLVs4e-64" vertex="1">
          <mxGeometry y="182" width="160" height="8" as="geometry" />
        </mxCell>
        <mxCell id="RY8UhwLNGJPvQsrLVs4e-91" value="Tâches" style="swimlane;fontStyle=1;align=center;verticalAlign=top;childLayout=stackLayout;horizontal=1;startSize=26;horizontalStack=0;resizeParent=1;resizeParentMax=0;resizeLast=0;collapsible=1;marginBottom=0;whiteSpace=wrap;html=1;" parent="1" vertex="1">
          <mxGeometry x="480" y="491" width="160" height="268" as="geometry" />
        </mxCell>
        <mxCell id="RY8UhwLNGJPvQsrLVs4e-92" value="+ id_tache: INT" style="text;strokeColor=none;fillColor=none;align=left;verticalAlign=top;spacingLeft=4;spacingRight=4;overflow=hidden;rotatable=0;points=[[0,0.5],[1,0.5]];portConstraint=eastwest;whiteSpace=wrap;html=1;" parent="RY8UhwLNGJPvQsrLVs4e-91" vertex="1">
          <mxGeometry y="26" width="160" height="26" as="geometry" />
        </mxCell>
        <mxCell id="RY8UhwLNGJPvQsrLVs4e-93" value="+ nom: TEXT" style="text;strokeColor=none;fillColor=none;align=left;verticalAlign=top;spacingLeft=4;spacingRight=4;overflow=hidden;rotatable=0;points=[[0,0.5],[1,0.5]];portConstraint=eastwest;whiteSpace=wrap;html=1;" parent="RY8UhwLNGJPvQsrLVs4e-91" vertex="1">
          <mxGeometry y="52" width="160" height="26" as="geometry" />
        </mxCell>
        <mxCell id="RY8UhwLNGJPvQsrLVs4e-95" value="+ debut: DATETIME" style="text;strokeColor=none;fillColor=none;align=left;verticalAlign=top;spacingLeft=4;spacingRight=4;overflow=hidden;rotatable=0;points=[[0,0.5],[1,0.5]];portConstraint=eastwest;whiteSpace=wrap;html=1;" parent="RY8UhwLNGJPvQsrLVs4e-91" vertex="1">
          <mxGeometry y="78" width="160" height="26" as="geometry" />
        </mxCell>
        <mxCell id="RY8UhwLNGJPvQsrLVs4e-96" value="+ fin: DATETIME" style="text;strokeColor=none;fillColor=none;align=left;verticalAlign=top;spacingLeft=4;spacingRight=4;overflow=hidden;rotatable=0;points=[[0,0.5],[1,0.5]];portConstraint=eastwest;whiteSpace=wrap;html=1;" parent="RY8UhwLNGJPvQsrLVs4e-91" vertex="1">
          <mxGeometry y="104" width="160" height="26" as="geometry" />
        </mxCell>
        <mxCell id="RY8UhwLNGJPvQsrLVs4e-97" value="+ duree: INT" style="text;strokeColor=none;fillColor=none;align=left;verticalAlign=top;spacingLeft=4;spacingRight=4;overflow=hidden;rotatable=0;points=[[0,0.5],[1,0.5]];portConstraint=eastwest;whiteSpace=wrap;html=1;" parent="RY8UhwLNGJPvQsrLVs4e-91" vertex="1">
          <mxGeometry y="130" width="160" height="26" as="geometry" />
        </mxCell>
        <mxCell id="RY8UhwLNGJPvQsrLVs4e-102" value="+ progression: INT" style="text;strokeColor=none;fillColor=none;align=left;verticalAlign=top;spacingLeft=4;spacingRight=4;overflow=hidden;rotatable=0;points=[[0,0.5],[1,0.5]];portConstraint=eastwest;whiteSpace=wrap;html=1;" parent="RY8UhwLNGJPvQsrLVs4e-91" vertex="1">
          <mxGeometry y="156" width="160" height="26" as="geometry" />
        </mxCell>
        <mxCell id="RY8UhwLNGJPvQsrLVs4e-98" value="+ dependance: VARCHAR" style="text;strokeColor=none;fillColor=none;align=left;verticalAlign=top;spacingLeft=4;spacingRight=4;overflow=hidden;rotatable=0;points=[[0,0.5],[1,0.5]];portConstraint=eastwest;whiteSpace=wrap;html=1;" parent="RY8UhwLNGJPvQsrLVs4e-91" vertex="1">
          <mxGeometry y="182" width="160" height="26" as="geometry" />
        </mxCell>
        <mxCell id="RY8UhwLNGJPvQsrLVs4e-99" value="+ recette_id: INT" style="text;strokeColor=none;fillColor=none;align=left;verticalAlign=top;spacingLeft=4;spacingRight=4;overflow=hidden;rotatable=0;points=[[0,0.5],[1,0.5]];portConstraint=eastwest;whiteSpace=wrap;html=1;" parent="RY8UhwLNGJPvQsrLVs4e-91" vertex="1">
          <mxGeometry y="208" width="160" height="26" as="geometry" />
        </mxCell>
        <mxCell id="RY8UhwLNGJPvQsrLVs4e-100" value="+ creation: DATE" style="text;strokeColor=none;fillColor=none;align=left;verticalAlign=top;spacingLeft=4;spacingRight=4;overflow=hidden;rotatable=0;points=[[0,0.5],[1,0.5]];portConstraint=eastwest;whiteSpace=wrap;html=1;" parent="RY8UhwLNGJPvQsrLVs4e-91" vertex="1">
          <mxGeometry y="234" width="160" height="26" as="geometry" />
        </mxCell>
        <mxCell id="RY8UhwLNGJPvQsrLVs4e-101" value="" style="line;strokeWidth=1;fillColor=none;align=left;verticalAlign=middle;spacingTop=-1;spacingLeft=3;spacingRight=3;rotatable=0;labelPosition=right;points=[];portConstraint=eastwest;strokeColor=inherit;" parent="RY8UhwLNGJPvQsrLVs4e-91" vertex="1">
          <mxGeometry y="260" width="160" height="8" as="geometry" />
        </mxCell>
        <mxCell id="spkfhq3mngfdHWQnD2Am-1" value="&lt;font style=&quot;font-size: 14px;&quot;&gt;sont créent/liées aux&lt;/font&gt;" style="endArrow=open;endSize=12;dashed=1;html=1;rounded=0;align=center;" parent="1" source="RY8UhwLNGJPvQsrLVs4e-91" target="RY8UhwLNGJPvQsrLVs4e-64" edge="1">
          <mxGeometry width="160" relative="1" as="geometry">
            <mxPoint x="290" y="663.5" as="sourcePoint" />
            <mxPoint x="450" y="663.5" as="targetPoint" />
            <mxPoint as="offset" />
          </mxGeometry>
        </mxCell>
        <mxCell id="spkfhq3mngfdHWQnD2Am-2" value="" style="endArrow=none;html=1;edgeStyle=orthogonalEdgeStyle;rounded=0;exitX=0.5;exitY=0;exitDx=0;exitDy=0;" parent="1" source="spkfhq3mngfdHWQnD2Am-10" target="RY8UhwLNGJPvQsrLVs4e-1" edge="1">
          <mxGeometry relative="1" as="geometry">
            <mxPoint x="90" y="330" as="sourcePoint" />
            <mxPoint x="250" y="330" as="targetPoint" />
            <Array as="points">
              <mxPoint x="210" y="310" />
            </Array>
          </mxGeometry>
        </mxCell>
        <mxCell id="spkfhq3mngfdHWQnD2Am-4" value="&lt;font style=&quot;font-size: 14px;&quot;&gt;1&lt;/font&gt;" style="edgeLabel;resizable=0;html=1;align=right;verticalAlign=bottom;" parent="spkfhq3mngfdHWQnD2Am-2" connectable="0" vertex="1">
          <mxGeometry x="1" relative="1" as="geometry" />
        </mxCell>
        <mxCell id="spkfhq3mngfdHWQnD2Am-11" value="" style="endArrow=none;html=1;edgeStyle=orthogonalEdgeStyle;rounded=0;exitX=0.5;exitY=0;exitDx=0;exitDy=0;" parent="1" source="RY8UhwLNGJPvQsrLVs4e-64" target="spkfhq3mngfdHWQnD2Am-10" edge="1">
          <mxGeometry relative="1" as="geometry">
            <mxPoint x="210" y="530" as="sourcePoint" />
            <mxPoint x="310" y="310" as="targetPoint" />
            <Array as="points" />
          </mxGeometry>
        </mxCell>
        <mxCell id="spkfhq3mngfdHWQnD2Am-12" value="&lt;span style=&quot;font-size: 14px;&quot;&gt;0..*&lt;/span&gt;" style="edgeLabel;resizable=0;html=1;align=left;verticalAlign=bottom;" parent="spkfhq3mngfdHWQnD2Am-11" connectable="0" vertex="1">
          <mxGeometry x="-1" relative="1" as="geometry" />
        </mxCell>
        <mxCell id="spkfhq3mngfdHWQnD2Am-10" value="&lt;span style=&quot;color: rgb(0, 0, 0); font-family: Helvetica; font-size: 14px; font-style: normal; font-variant-ligatures: normal; font-variant-caps: normal; font-weight: 400; letter-spacing: normal; orphans: 2; text-indent: 0px; text-transform: none; widows: 2; word-spacing: 0px; -webkit-text-stroke-width: 0px; background-color: rgb(255, 255, 255); text-decoration-thickness: initial; text-decoration-style: initial; text-decoration-color: initial; float: none; display: inline !important;&quot;&gt;créent&lt;/span&gt;" style="text;whiteSpace=wrap;html=1;align=center;" parent="1" vertex="1">
          <mxGeometry x="185" y="380" width="50" height="30" as="geometry" />
        </mxCell>
      </root>
    </mxGraphModel>
  </diagram>
  <diagram id="Sx3LkbpNEWeMeIWcISKF" name="Diagramme de séquence (1)">
    <mxGraphModel dx="2314" dy="1156" grid="1" gridSize="10" guides="1" tooltips="1" connect="1" arrows="1" fold="1" page="1" pageScale="1" pageWidth="827" pageHeight="1169" math="0" shadow="0">
      <root>
        <mxCell id="0" />
        <mxCell id="1" parent="0" />
        <mxCell id="KKxXYsVkOCKF3yVwe5y4-3" value="" style="html=1;points=[];perimeter=orthogonalPerimeter;outlineConnect=0;targetShapes=umlLifeline;portConstraint=eastwest;newEdgeStyle={&quot;edgeStyle&quot;:&quot;elbowEdgeStyle&quot;,&quot;elbow&quot;:&quot;vertical&quot;,&quot;curved&quot;:0,&quot;rounded&quot;:0};movable=1;resizable=1;rotatable=1;deletable=1;editable=1;locked=0;connectable=1;" parent="1" vertex="1">
          <mxGeometry x="315" y="240" width="10" height="1120" as="geometry" />
        </mxCell>
        <mxCell id="KKxXYsVkOCKF3yVwe5y4-4" value="" style="html=1;points=[];perimeter=orthogonalPerimeter;outlineConnect=0;targetShapes=umlLifeline;portConstraint=eastwest;newEdgeStyle={&quot;edgeStyle&quot;:&quot;elbowEdgeStyle&quot;,&quot;elbow&quot;:&quot;vertical&quot;,&quot;curved&quot;:0,&quot;rounded&quot;:0};movable=1;resizable=1;rotatable=1;deletable=1;editable=1;locked=0;connectable=1;" parent="1" vertex="1">
          <mxGeometry x="770" y="240" width="10" height="1120" as="geometry" />
        </mxCell>
        <mxCell id="KKxXYsVkOCKF3yVwe5y4-5" value="" style="html=1;points=[];perimeter=orthogonalPerimeter;outlineConnect=0;targetShapes=umlLifeline;portConstraint=eastwest;newEdgeStyle={&quot;edgeStyle&quot;:&quot;elbowEdgeStyle&quot;,&quot;elbow&quot;:&quot;vertical&quot;,&quot;curved&quot;:0,&quot;rounded&quot;:0};movable=1;resizable=1;rotatable=1;deletable=1;editable=1;locked=0;connectable=1;" parent="1" vertex="1">
          <mxGeometry x="1315" y="240" width="10" height="1120" as="geometry" />
        </mxCell>
        <mxCell id="KKxXYsVkOCKF3yVwe5y4-6" value="&lt;font style=&quot;font-size: 14px;&quot;&gt;Entre l&#39;adresse web du site&lt;/font&gt;" style="html=1;verticalAlign=bottom;endArrow=block;edgeStyle=elbowEdgeStyle;elbow=vertical;curved=0;rounded=0;" parent="1" source="KKxXYsVkOCKF3yVwe5y4-3" edge="1">
          <mxGeometry width="80" relative="1" as="geometry">
            <mxPoint x="450" y="290" as="sourcePoint" />
            <mxPoint x="770" y="290" as="targetPoint" />
            <Array as="points">
              <mxPoint x="690" y="290" />
            </Array>
          </mxGeometry>
        </mxCell>
        <mxCell id="KKxXYsVkOCKF3yVwe5y4-7" value="&lt;font style=&quot;font-size: 14px;&quot;&gt;Navigateur web&lt;/font&gt;" style="text;align=center;fontStyle=1;verticalAlign=middle;spacingLeft=3;spacingRight=3;strokeColor=none;rotatable=1;points=[[0,0.5],[1,0.5]];portConstraint=eastwest;html=1;movable=1;resizable=1;deletable=1;editable=1;locked=0;connectable=1;" parent="1" vertex="1">
          <mxGeometry x="260" y="214" width="120" height="26" as="geometry" />
        </mxCell>
        <mxCell id="KKxXYsVkOCKF3yVwe5y4-9" value="&lt;font style=&quot;font-size: 14px;&quot;&gt;Application web&lt;/font&gt;" style="text;align=center;fontStyle=1;verticalAlign=middle;spacingLeft=3;spacingRight=3;strokeColor=none;rotatable=1;points=[[0,0.5],[1,0.5]];portConstraint=eastwest;html=1;movable=1;resizable=1;deletable=1;editable=1;locked=0;connectable=1;" parent="1" vertex="1">
          <mxGeometry x="722.5" y="214" width="105" height="26" as="geometry" />
        </mxCell>
        <mxCell id="KKxXYsVkOCKF3yVwe5y4-10" value="&lt;font style=&quot;font-size: 14px;&quot;&gt;Base de données&lt;/font&gt;" style="text;align=center;fontStyle=1;verticalAlign=middle;spacingLeft=3;spacingRight=3;strokeColor=none;rotatable=1;points=[[0,0.5],[1,0.5]];portConstraint=eastwest;html=1;movable=1;resizable=1;deletable=1;editable=1;locked=0;connectable=1;" parent="1" vertex="1">
          <mxGeometry x="1260" y="214" width="120" height="26" as="geometry" />
        </mxCell>
        <mxCell id="KKxXYsVkOCKF3yVwe5y4-11" value="&lt;font style=&quot;font-size: 14px;&quot;&gt;Affiche la page d&#39;accueil du site&lt;/font&gt;" style="html=1;verticalAlign=bottom;endArrow=open;dashed=1;endSize=8;edgeStyle=elbowEdgeStyle;elbow=vertical;curved=0;rounded=0;" parent="1" target="KKxXYsVkOCKF3yVwe5y4-3" edge="1">
          <mxGeometry relative="1" as="geometry">
            <mxPoint x="770" y="330" as="sourcePoint" />
            <mxPoint x="450" y="330" as="targetPoint" />
          </mxGeometry>
        </mxCell>
        <mxCell id="KKxXYsVkOCKF3yVwe5y4-15" value="&lt;font style=&quot;font-size: 14px;&quot;&gt;Affiche la page de connexion&lt;/font&gt;" style="html=1;verticalAlign=bottom;endArrow=open;dashed=1;endSize=8;edgeStyle=elbowEdgeStyle;elbow=vertical;curved=0;rounded=0;" parent="1" target="KKxXYsVkOCKF3yVwe5y4-3" edge="1">
          <mxGeometry x="0.1892" relative="1" as="geometry">
            <mxPoint x="770" y="1020" as="sourcePoint" />
            <mxPoint x="450" y="1020" as="targetPoint" />
            <Array as="points">
              <mxPoint x="680" y="900" />
              <mxPoint x="720" y="910" />
              <mxPoint x="720" y="900" />
              <mxPoint x="690" y="920" />
            </Array>
            <mxPoint as="offset" />
          </mxGeometry>
        </mxCell>
        <mxCell id="BPZgHM2IscVouJC9ixWd-1" value="&lt;font style=&quot;font-size: 14px;&quot;&gt;Clique sur la page d&#39;inscription&lt;/font&gt;" style="html=1;verticalAlign=bottom;endArrow=block;edgeStyle=elbowEdgeStyle;elbow=vertical;curved=0;rounded=0;" parent="1" source="KKxXYsVkOCKF3yVwe5y4-3" edge="1">
          <mxGeometry width="80" relative="1" as="geometry">
            <mxPoint x="450" y="380" as="sourcePoint" />
            <mxPoint x="770" y="380" as="targetPoint" />
            <Array as="points" />
          </mxGeometry>
        </mxCell>
        <mxCell id="BPZgHM2IscVouJC9ixWd-2" value="&lt;font style=&quot;font-size: 14px;&quot;&gt;Affiche la page d&#39;inscription&lt;/font&gt;" style="html=1;verticalAlign=bottom;endArrow=open;dashed=1;endSize=8;edgeStyle=elbowEdgeStyle;elbow=vertical;curved=0;rounded=0;" parent="1" target="KKxXYsVkOCKF3yVwe5y4-3" edge="1">
          <mxGeometry relative="1" as="geometry">
            <mxPoint x="770" y="420" as="sourcePoint" />
            <mxPoint x="450" y="420" as="targetPoint" />
          </mxGeometry>
        </mxCell>
        <mxCell id="BPZgHM2IscVouJC9ixWd-7" value="&lt;font style=&quot;font-size: 14px;&quot;&gt;Vérifie si toutes les informations sont entrées&lt;/font&gt;" style="html=1;align=left;spacingLeft=2;endArrow=block;rounded=0;edgeStyle=orthogonalEdgeStyle;curved=0;rounded=0;" parent="1" source="KKxXYsVkOCKF3yVwe5y4-4" target="KKxXYsVkOCKF3yVwe5y4-4" edge="1">
          <mxGeometry relative="1" as="geometry">
            <mxPoint x="780" y="460" as="sourcePoint" />
            <Array as="points">
              <mxPoint x="810" y="500" />
              <mxPoint x="810" y="540" />
            </Array>
            <mxPoint x="785" y="490" as="targetPoint" />
            <mxPoint as="offset" />
          </mxGeometry>
        </mxCell>
        <mxCell id="BPZgHM2IscVouJC9ixWd-9" value="&lt;font style=&quot;font-size: 14px;&quot;&gt;Entre les informations demandées&lt;/font&gt;" style="html=1;verticalAlign=bottom;endArrow=block;edgeStyle=elbowEdgeStyle;elbow=vertical;curved=0;rounded=0;" parent="1" source="KKxXYsVkOCKF3yVwe5y4-3" edge="1">
          <mxGeometry width="80" relative="1" as="geometry">
            <mxPoint x="450" y="470" as="sourcePoint" />
            <mxPoint x="770" y="470" as="targetPoint" />
            <Array as="points" />
          </mxGeometry>
        </mxCell>
        <mxCell id="BPZgHM2IscVouJC9ixWd-11" value="&lt;font style=&quot;font-size: 14px;&quot;&gt;Si c&#39;est OK&lt;/font&gt;" style="html=1;align=left;spacingLeft=2;endArrow=block;rounded=0;edgeStyle=orthogonalEdgeStyle;curved=0;rounded=0;" parent="1" edge="1">
          <mxGeometry relative="1" as="geometry">
            <mxPoint x="780" y="570" as="sourcePoint" />
            <Array as="points">
              <mxPoint x="810" y="570" />
              <mxPoint x="810" y="610" />
            </Array>
            <mxPoint x="780" y="610" as="targetPoint" />
            <mxPoint as="offset" />
          </mxGeometry>
        </mxCell>
        <mxCell id="BPZgHM2IscVouJC9ixWd-12" value="&lt;font style=&quot;font-size: 14px;&quot;&gt;Envoie les informations données par l&#39;utilisateur&lt;/font&gt;" style="html=1;verticalAlign=bottom;endArrow=block;edgeStyle=elbowEdgeStyle;elbow=vertical;curved=0;rounded=0;" parent="1" source="KKxXYsVkOCKF3yVwe5y4-4" target="KKxXYsVkOCKF3yVwe5y4-5" edge="1">
          <mxGeometry width="80" relative="1" as="geometry">
            <mxPoint x="850" y="650" as="sourcePoint" />
            <mxPoint x="1310" y="650" as="targetPoint" />
            <Array as="points">
              <mxPoint x="1310" y="640" />
            </Array>
          </mxGeometry>
        </mxCell>
        <mxCell id="BPZgHM2IscVouJC9ixWd-13" value="&lt;font style=&quot;font-size: 14px;&quot;&gt;Les informations s&#39;enregistrent&lt;/font&gt;" style="html=1;align=left;spacingLeft=2;endArrow=block;rounded=0;edgeStyle=orthogonalEdgeStyle;curved=0;rounded=0;" parent="1" edge="1">
          <mxGeometry relative="1" as="geometry">
            <mxPoint x="1325" y="660" as="sourcePoint" />
            <Array as="points">
              <mxPoint x="1355" y="660" />
              <mxPoint x="1355" y="700" />
            </Array>
            <mxPoint x="1325" y="700" as="targetPoint" />
            <mxPoint as="offset" />
          </mxGeometry>
        </mxCell>
        <mxCell id="BPZgHM2IscVouJC9ixWd-14" value="&lt;font style=&quot;font-size: 14px;&quot;&gt;Message : OK&lt;/font&gt;" style="html=1;verticalAlign=bottom;endArrow=open;dashed=1;endSize=8;edgeStyle=elbowEdgeStyle;elbow=vertical;curved=0;rounded=0;" parent="1" source="KKxXYsVkOCKF3yVwe5y4-5" edge="1">
          <mxGeometry relative="1" as="geometry">
            <mxPoint x="1100" y="730" as="sourcePoint" />
            <mxPoint x="780" y="720" as="targetPoint" />
            <Array as="points">
              <mxPoint x="1030" y="720" />
              <mxPoint x="1220" y="700" />
            </Array>
          </mxGeometry>
        </mxCell>
        <mxCell id="BPZgHM2IscVouJC9ixWd-18" value="&lt;font style=&quot;font-size: 14px;&quot;&gt;Si c&#39;est NON&lt;/font&gt;" style="html=1;align=left;spacingLeft=2;endArrow=block;rounded=0;edgeStyle=orthogonalEdgeStyle;curved=0;rounded=0;" parent="1" edge="1">
          <mxGeometry relative="1" as="geometry">
            <mxPoint x="780" y="750" as="sourcePoint" />
            <Array as="points">
              <mxPoint x="810" y="750" />
              <mxPoint x="810" y="790" />
            </Array>
            <mxPoint x="780" y="790" as="targetPoint" />
            <mxPoint as="offset" />
          </mxGeometry>
        </mxCell>
        <mxCell id="BPZgHM2IscVouJC9ixWd-19" value="&lt;font style=&quot;font-size: 14px;&quot;&gt;Message : Veillez remplir toutes les information demandées&lt;/font&gt;" style="html=1;verticalAlign=bottom;endArrow=open;dashed=1;endSize=8;edgeStyle=elbowEdgeStyle;elbow=vertical;curved=0;rounded=0;" parent="1" target="KKxXYsVkOCKF3yVwe5y4-3" edge="1">
          <mxGeometry relative="1" as="geometry">
            <mxPoint x="770" y="810" as="sourcePoint" />
            <mxPoint x="450" y="810" as="targetPoint" />
          </mxGeometry>
        </mxCell>
        <mxCell id="BPZgHM2IscVouJC9ixWd-20" value="&lt;font style=&quot;font-size: 14px;&quot;&gt;Message : Compte utilisateur est crée&lt;/font&gt;" style="html=1;verticalAlign=bottom;endArrow=open;dashed=1;endSize=8;edgeStyle=elbowEdgeStyle;elbow=vertical;curved=0;rounded=0;" parent="1" source="KKxXYsVkOCKF3yVwe5y4-4" target="KKxXYsVkOCKF3yVwe5y4-3" edge="1">
          <mxGeometry relative="1" as="geometry">
            <mxPoint x="760" y="730" as="sourcePoint" />
            <mxPoint x="350" y="740" as="targetPoint" />
            <Array as="points">
              <mxPoint x="740" y="740" />
            </Array>
          </mxGeometry>
        </mxCell>
        <mxCell id="BPZgHM2IscVouJC9ixWd-21" value="&lt;font style=&quot;font-size: 14px;&quot;&gt;Clique sur la page de connexion&lt;/font&gt;" style="html=1;verticalAlign=bottom;endArrow=block;edgeStyle=elbowEdgeStyle;elbow=vertical;curved=0;rounded=0;" parent="1" source="KKxXYsVkOCKF3yVwe5y4-3" target="KKxXYsVkOCKF3yVwe5y4-4" edge="1">
          <mxGeometry width="80" relative="1" as="geometry">
            <mxPoint x="340" y="870" as="sourcePoint" />
            <mxPoint x="690" y="860" as="targetPoint" />
            <Array as="points">
              <mxPoint x="690" y="860" />
            </Array>
          </mxGeometry>
        </mxCell>
        <mxCell id="BPZgHM2IscVouJC9ixWd-23" value="&lt;font style=&quot;font-size: 14px;&quot;&gt;Entre les identifiants du compte&lt;/font&gt;" style="html=1;verticalAlign=bottom;endArrow=block;edgeStyle=elbowEdgeStyle;elbow=vertical;curved=0;rounded=0;" parent="1" source="KKxXYsVkOCKF3yVwe5y4-3" edge="1">
          <mxGeometry width="80" relative="1" as="geometry">
            <mxPoint x="340" y="950" as="sourcePoint" />
            <mxPoint x="770" y="950" as="targetPoint" />
            <Array as="points" />
          </mxGeometry>
        </mxCell>
        <mxCell id="BPZgHM2IscVouJC9ixWd-25" value="&lt;font style=&quot;font-size: 14px;&quot;&gt;Envoie les informations données par l&#39;utilisateur&lt;/font&gt;" style="html=1;verticalAlign=bottom;endArrow=block;edgeStyle=elbowEdgeStyle;elbow=vertical;curved=0;rounded=0;" parent="1" target="KKxXYsVkOCKF3yVwe5y4-5" edge="1">
          <mxGeometry width="80" relative="1" as="geometry">
            <mxPoint x="780" y="990" as="sourcePoint" />
            <mxPoint x="1280" y="1000" as="targetPoint" />
            <Array as="points">
              <mxPoint x="1200" y="990" />
            </Array>
          </mxGeometry>
        </mxCell>
        <mxCell id="BPZgHM2IscVouJC9ixWd-26" value="&lt;font style=&quot;font-size: 14px;&quot;&gt;Si c&#39;est OK&lt;/font&gt;" style="html=1;align=left;spacingLeft=2;endArrow=block;rounded=0;edgeStyle=orthogonalEdgeStyle;curved=0;rounded=0;" parent="1" edge="1">
          <mxGeometry relative="1" as="geometry">
            <mxPoint x="1325" y="1010" as="sourcePoint" />
            <Array as="points">
              <mxPoint x="1355" y="1010" />
              <mxPoint x="1355" y="1050" />
            </Array>
            <mxPoint x="1325" y="1050" as="targetPoint" />
            <mxPoint as="offset" />
          </mxGeometry>
        </mxCell>
        <mxCell id="BPZgHM2IscVouJC9ixWd-27" value="&lt;font style=&quot;font-size: 14px;&quot;&gt;Message : OK&lt;/font&gt;" style="html=1;verticalAlign=bottom;endArrow=open;dashed=1;endSize=8;edgeStyle=elbowEdgeStyle;elbow=vertical;curved=0;rounded=0;" parent="1" edge="1">
          <mxGeometry relative="1" as="geometry">
            <mxPoint x="1315" y="1070" as="sourcePoint" />
            <mxPoint x="780" y="1070" as="targetPoint" />
            <Array as="points">
              <mxPoint x="1030" y="1070" />
              <mxPoint x="1220" y="1050" />
            </Array>
          </mxGeometry>
        </mxCell>
        <mxCell id="BPZgHM2IscVouJC9ixWd-29" value="&lt;font style=&quot;font-size: 14px;&quot;&gt;Message : Connexion réussie&lt;/font&gt;" style="html=1;verticalAlign=bottom;endArrow=open;dashed=1;endSize=8;edgeStyle=elbowEdgeStyle;elbow=vertical;curved=0;rounded=0;" parent="1" edge="1">
          <mxGeometry relative="1" as="geometry">
            <mxPoint x="770" y="1090" as="sourcePoint" />
            <mxPoint x="325" y="1090" as="targetPoint" />
          </mxGeometry>
        </mxCell>
        <mxCell id="BPZgHM2IscVouJC9ixWd-30" value="&lt;span style=&quot;font-size: 14px;&quot;&gt;Renvoie sur page d&#39;accueil&lt;/span&gt;" style="html=1;verticalAlign=bottom;endArrow=open;dashed=1;endSize=8;edgeStyle=elbowEdgeStyle;elbow=vertical;curved=0;rounded=0;" parent="1" edge="1">
          <mxGeometry relative="1" as="geometry">
            <mxPoint x="770" y="1130" as="sourcePoint" />
            <mxPoint x="325" y="1130" as="targetPoint" />
          </mxGeometry>
        </mxCell>
        <mxCell id="BPZgHM2IscVouJC9ixWd-31" value="&lt;font style=&quot;font-size: 14px;&quot;&gt;Si c&#39;est NON&lt;/font&gt;" style="html=1;align=left;spacingLeft=2;endArrow=block;rounded=0;edgeStyle=orthogonalEdgeStyle;curved=0;rounded=0;" parent="1" edge="1">
          <mxGeometry relative="1" as="geometry">
            <mxPoint x="1325" y="1150" as="sourcePoint" />
            <Array as="points">
              <mxPoint x="1355" y="1150" />
              <mxPoint x="1355" y="1190" />
            </Array>
            <mxPoint x="1325" y="1190" as="targetPoint" />
            <mxPoint as="offset" />
          </mxGeometry>
        </mxCell>
        <mxCell id="BPZgHM2IscVouJC9ixWd-32" value="&lt;font style=&quot;font-size: 14px;&quot;&gt;Message : NON&lt;/font&gt;" style="html=1;verticalAlign=bottom;endArrow=open;dashed=1;endSize=8;edgeStyle=elbowEdgeStyle;elbow=vertical;curved=0;rounded=0;" parent="1" edge="1">
          <mxGeometry relative="1" as="geometry">
            <mxPoint x="1315" y="1210" as="sourcePoint" />
            <mxPoint x="780" y="1210" as="targetPoint" />
            <Array as="points">
              <mxPoint x="1030" y="1210" />
              <mxPoint x="1220" y="1190" />
            </Array>
          </mxGeometry>
        </mxCell>
        <mxCell id="BPZgHM2IscVouJC9ixWd-33" value="&lt;font style=&quot;font-size: 14px;&quot;&gt;Message : Les informations sont incorrectes&lt;/font&gt;" style="html=1;verticalAlign=bottom;endArrow=open;dashed=1;endSize=8;edgeStyle=elbowEdgeStyle;elbow=vertical;curved=0;rounded=0;" parent="1" edge="1">
          <mxGeometry relative="1" as="geometry">
            <mxPoint x="770" y="1240" as="sourcePoint" />
            <mxPoint x="325" y="1240" as="targetPoint" />
          </mxGeometry>
        </mxCell>
      </root>
    </mxGraphModel>
  </diagram>
  <diagram name="Diagramme de séquence (2)" id="PjF23t-LOy7yPCKPBe7H">
    <mxGraphModel dx="2314" dy="1156" grid="1" gridSize="10" guides="1" tooltips="1" connect="1" arrows="1" fold="1" page="1" pageScale="1" pageWidth="827" pageHeight="1169" math="0" shadow="0">
      <root>
        <mxCell id="VadxN7hpMvlCymdNM9xu-0" />
        <mxCell id="VadxN7hpMvlCymdNM9xu-1" parent="VadxN7hpMvlCymdNM9xu-0" />
        <mxCell id="VadxN7hpMvlCymdNM9xu-2" value="" style="html=1;points=[];perimeter=orthogonalPerimeter;outlineConnect=0;targetShapes=umlLifeline;portConstraint=eastwest;newEdgeStyle={&quot;edgeStyle&quot;:&quot;elbowEdgeStyle&quot;,&quot;elbow&quot;:&quot;vertical&quot;,&quot;curved&quot;:0,&quot;rounded&quot;:0};movable=1;resizable=1;rotatable=1;deletable=1;editable=1;locked=0;connectable=1;" vertex="1" parent="VadxN7hpMvlCymdNM9xu-1">
          <mxGeometry x="315" y="240" width="10" height="1000" as="geometry" />
        </mxCell>
        <mxCell id="VadxN7hpMvlCymdNM9xu-3" value="" style="html=1;points=[];perimeter=orthogonalPerimeter;outlineConnect=0;targetShapes=umlLifeline;portConstraint=eastwest;newEdgeStyle={&quot;edgeStyle&quot;:&quot;elbowEdgeStyle&quot;,&quot;elbow&quot;:&quot;vertical&quot;,&quot;curved&quot;:0,&quot;rounded&quot;:0};movable=1;resizable=1;rotatable=1;deletable=1;editable=1;locked=0;connectable=1;" vertex="1" parent="VadxN7hpMvlCymdNM9xu-1">
          <mxGeometry x="770" y="240" width="10" height="1000" as="geometry" />
        </mxCell>
        <mxCell id="VadxN7hpMvlCymdNM9xu-4" value="" style="html=1;points=[];perimeter=orthogonalPerimeter;outlineConnect=0;targetShapes=umlLifeline;portConstraint=eastwest;newEdgeStyle={&quot;edgeStyle&quot;:&quot;elbowEdgeStyle&quot;,&quot;elbow&quot;:&quot;vertical&quot;,&quot;curved&quot;:0,&quot;rounded&quot;:0};movable=1;resizable=1;rotatable=1;deletable=1;editable=1;locked=0;connectable=1;" vertex="1" parent="VadxN7hpMvlCymdNM9xu-1">
          <mxGeometry x="1315" y="240" width="10" height="1000" as="geometry" />
        </mxCell>
        <mxCell id="VadxN7hpMvlCymdNM9xu-5" value="&lt;font style=&quot;font-size: 14px;&quot;&gt;Clique sur la page des recettes&lt;/font&gt;" style="html=1;verticalAlign=bottom;endArrow=block;edgeStyle=elbowEdgeStyle;elbow=vertical;curved=0;rounded=0;" edge="1" parent="VadxN7hpMvlCymdNM9xu-1" source="VadxN7hpMvlCymdNM9xu-2">
          <mxGeometry width="80" relative="1" as="geometry">
            <mxPoint x="450" y="290" as="sourcePoint" />
            <mxPoint x="770" y="290" as="targetPoint" />
            <Array as="points">
              <mxPoint x="690" y="290" />
            </Array>
          </mxGeometry>
        </mxCell>
        <mxCell id="VadxN7hpMvlCymdNM9xu-6" value="&lt;font style=&quot;font-size: 14px;&quot;&gt;Navigateur web&lt;/font&gt;" style="text;align=center;fontStyle=1;verticalAlign=middle;spacingLeft=3;spacingRight=3;strokeColor=none;rotatable=1;points=[[0,0.5],[1,0.5]];portConstraint=eastwest;html=1;movable=1;resizable=1;deletable=1;editable=1;locked=0;connectable=1;" vertex="1" parent="VadxN7hpMvlCymdNM9xu-1">
          <mxGeometry x="260" y="214" width="120" height="26" as="geometry" />
        </mxCell>
        <mxCell id="VadxN7hpMvlCymdNM9xu-7" value="&lt;font style=&quot;font-size: 14px;&quot;&gt;Application web&lt;/font&gt;" style="text;align=center;fontStyle=1;verticalAlign=middle;spacingLeft=3;spacingRight=3;strokeColor=none;rotatable=1;points=[[0,0.5],[1,0.5]];portConstraint=eastwest;html=1;movable=1;resizable=1;deletable=1;editable=1;locked=0;connectable=1;" vertex="1" parent="VadxN7hpMvlCymdNM9xu-1">
          <mxGeometry x="722.5" y="214" width="105" height="26" as="geometry" />
        </mxCell>
        <mxCell id="VadxN7hpMvlCymdNM9xu-8" value="&lt;font style=&quot;font-size: 14px;&quot;&gt;Base de données&lt;/font&gt;" style="text;align=center;fontStyle=1;verticalAlign=middle;spacingLeft=3;spacingRight=3;strokeColor=none;rotatable=1;points=[[0,0.5],[1,0.5]];portConstraint=eastwest;html=1;movable=1;resizable=1;deletable=1;editable=1;locked=0;connectable=1;" vertex="1" parent="VadxN7hpMvlCymdNM9xu-1">
          <mxGeometry x="1260" y="214" width="120" height="26" as="geometry" />
        </mxCell>
        <mxCell id="VadxN7hpMvlCymdNM9xu-9" value="&lt;font style=&quot;font-size: 14px;&quot;&gt;Affiche la page&lt;/font&gt;" style="html=1;verticalAlign=bottom;endArrow=open;dashed=1;endSize=8;edgeStyle=elbowEdgeStyle;elbow=vertical;curved=0;rounded=0;" edge="1" parent="VadxN7hpMvlCymdNM9xu-1" target="VadxN7hpMvlCymdNM9xu-2">
          <mxGeometry relative="1" as="geometry">
            <mxPoint x="770" y="330" as="sourcePoint" />
            <mxPoint x="450" y="330" as="targetPoint" />
          </mxGeometry>
        </mxCell>
        <mxCell id="VadxN7hpMvlCymdNM9xu-10" value="&lt;font style=&quot;font-size: 14px;&quot;&gt;Renvoie sur la page des recettes actualisée&lt;/font&gt;" style="html=1;verticalAlign=bottom;endArrow=open;dashed=1;endSize=8;edgeStyle=elbowEdgeStyle;elbow=vertical;curved=0;rounded=0;" edge="1" parent="VadxN7hpMvlCymdNM9xu-1" target="VadxN7hpMvlCymdNM9xu-2">
          <mxGeometry x="0.1892" relative="1" as="geometry">
            <mxPoint x="770" y="1020" as="sourcePoint" />
            <mxPoint x="450" y="1020" as="targetPoint" />
            <Array as="points">
              <mxPoint x="680" y="870" />
              <mxPoint x="680" y="900" />
              <mxPoint x="720" y="910" />
              <mxPoint x="720" y="900" />
              <mxPoint x="690" y="920" />
            </Array>
            <mxPoint as="offset" />
          </mxGeometry>
        </mxCell>
        <mxCell id="VadxN7hpMvlCymdNM9xu-11" value="&lt;font style=&quot;font-size: 14px;&quot;&gt;Clique sur la page d&#39;ajout d&#39;une recette&lt;/font&gt;" style="html=1;verticalAlign=bottom;endArrow=block;edgeStyle=elbowEdgeStyle;elbow=vertical;curved=0;rounded=0;" edge="1" parent="VadxN7hpMvlCymdNM9xu-1" source="VadxN7hpMvlCymdNM9xu-2">
          <mxGeometry width="80" relative="1" as="geometry">
            <mxPoint x="450" y="380" as="sourcePoint" />
            <mxPoint x="770" y="380" as="targetPoint" />
            <Array as="points" />
          </mxGeometry>
        </mxCell>
        <mxCell id="VadxN7hpMvlCymdNM9xu-12" value="&lt;font style=&quot;font-size: 14px;&quot;&gt;Affiche la page&lt;/font&gt;" style="html=1;verticalAlign=bottom;endArrow=open;dashed=1;endSize=8;edgeStyle=elbowEdgeStyle;elbow=vertical;curved=0;rounded=0;" edge="1" parent="VadxN7hpMvlCymdNM9xu-1" target="VadxN7hpMvlCymdNM9xu-2">
          <mxGeometry relative="1" as="geometry">
            <mxPoint x="770" y="420" as="sourcePoint" />
            <mxPoint x="450" y="420" as="targetPoint" />
          </mxGeometry>
        </mxCell>
        <mxCell id="VadxN7hpMvlCymdNM9xu-13" value="&lt;font style=&quot;font-size: 14px;&quot;&gt;Vérifie si toutes les informations sont entrées&lt;/font&gt;" style="html=1;align=left;spacingLeft=2;endArrow=block;rounded=0;edgeStyle=orthogonalEdgeStyle;curved=0;rounded=0;" edge="1" parent="VadxN7hpMvlCymdNM9xu-1" source="VadxN7hpMvlCymdNM9xu-3" target="VadxN7hpMvlCymdNM9xu-3">
          <mxGeometry relative="1" as="geometry">
            <mxPoint x="780" y="460" as="sourcePoint" />
            <Array as="points">
              <mxPoint x="810" y="500" />
              <mxPoint x="810" y="540" />
            </Array>
            <mxPoint x="785" y="490" as="targetPoint" />
            <mxPoint as="offset" />
          </mxGeometry>
        </mxCell>
        <mxCell id="VadxN7hpMvlCymdNM9xu-14" value="&lt;font style=&quot;font-size: 14px;&quot;&gt;Entre les informations demandées&lt;/font&gt;" style="html=1;verticalAlign=bottom;endArrow=block;edgeStyle=elbowEdgeStyle;elbow=vertical;curved=0;rounded=0;" edge="1" parent="VadxN7hpMvlCymdNM9xu-1" source="VadxN7hpMvlCymdNM9xu-2">
          <mxGeometry width="80" relative="1" as="geometry">
            <mxPoint x="450" y="470" as="sourcePoint" />
            <mxPoint x="770" y="470" as="targetPoint" />
            <Array as="points" />
          </mxGeometry>
        </mxCell>
        <mxCell id="VadxN7hpMvlCymdNM9xu-15" value="&lt;font style=&quot;font-size: 14px;&quot;&gt;Si c&#39;est OK&lt;/font&gt;" style="html=1;align=left;spacingLeft=2;endArrow=block;rounded=0;edgeStyle=orthogonalEdgeStyle;curved=0;rounded=0;" edge="1" parent="VadxN7hpMvlCymdNM9xu-1">
          <mxGeometry relative="1" as="geometry">
            <mxPoint x="780" y="570" as="sourcePoint" />
            <Array as="points">
              <mxPoint x="810" y="570" />
              <mxPoint x="810" y="610" />
            </Array>
            <mxPoint x="780" y="610" as="targetPoint" />
            <mxPoint as="offset" />
          </mxGeometry>
        </mxCell>
        <mxCell id="VadxN7hpMvlCymdNM9xu-16" value="&lt;font style=&quot;font-size: 14px;&quot;&gt;Envoie les informations données par l&#39;utilisateur&lt;/font&gt;" style="html=1;verticalAlign=bottom;endArrow=block;edgeStyle=elbowEdgeStyle;elbow=vertical;curved=0;rounded=0;" edge="1" parent="VadxN7hpMvlCymdNM9xu-1" source="VadxN7hpMvlCymdNM9xu-3" target="VadxN7hpMvlCymdNM9xu-4">
          <mxGeometry width="80" relative="1" as="geometry">
            <mxPoint x="850" y="650" as="sourcePoint" />
            <mxPoint x="1310" y="650" as="targetPoint" />
            <Array as="points">
              <mxPoint x="1310" y="640" />
            </Array>
          </mxGeometry>
        </mxCell>
        <mxCell id="VadxN7hpMvlCymdNM9xu-17" value="&lt;font style=&quot;font-size: 14px;&quot;&gt;Les informations s&#39;enregistrent&lt;/font&gt;" style="html=1;align=left;spacingLeft=2;endArrow=block;rounded=0;edgeStyle=orthogonalEdgeStyle;curved=0;rounded=0;" edge="1" parent="VadxN7hpMvlCymdNM9xu-1">
          <mxGeometry relative="1" as="geometry">
            <mxPoint x="1325" y="660" as="sourcePoint" />
            <Array as="points">
              <mxPoint x="1355" y="660" />
              <mxPoint x="1355" y="700" />
            </Array>
            <mxPoint x="1325" y="700" as="targetPoint" />
            <mxPoint as="offset" />
          </mxGeometry>
        </mxCell>
        <mxCell id="VadxN7hpMvlCymdNM9xu-18" value="&lt;font style=&quot;font-size: 14px;&quot;&gt;Message : OK&lt;/font&gt;" style="html=1;verticalAlign=bottom;endArrow=open;dashed=1;endSize=8;edgeStyle=elbowEdgeStyle;elbow=vertical;curved=0;rounded=0;" edge="1" parent="VadxN7hpMvlCymdNM9xu-1" source="VadxN7hpMvlCymdNM9xu-4">
          <mxGeometry relative="1" as="geometry">
            <mxPoint x="1100" y="730" as="sourcePoint" />
            <mxPoint x="780" y="720" as="targetPoint" />
            <Array as="points">
              <mxPoint x="1030" y="720" />
              <mxPoint x="1220" y="700" />
            </Array>
          </mxGeometry>
        </mxCell>
        <mxCell id="VadxN7hpMvlCymdNM9xu-19" value="&lt;font style=&quot;font-size: 14px;&quot;&gt;Si c&#39;est NON&lt;/font&gt;" style="html=1;align=left;spacingLeft=2;endArrow=block;rounded=0;edgeStyle=orthogonalEdgeStyle;curved=0;rounded=0;" edge="1" parent="VadxN7hpMvlCymdNM9xu-1">
          <mxGeometry relative="1" as="geometry">
            <mxPoint x="780" y="750" as="sourcePoint" />
            <Array as="points">
              <mxPoint x="810" y="750" />
              <mxPoint x="810" y="790" />
            </Array>
            <mxPoint x="780" y="790" as="targetPoint" />
            <mxPoint as="offset" />
          </mxGeometry>
        </mxCell>
        <mxCell id="VadxN7hpMvlCymdNM9xu-20" value="&lt;font style=&quot;font-size: 14px;&quot;&gt;Message : Veillez remplir toutes les information demandées&lt;/font&gt;" style="html=1;verticalAlign=bottom;endArrow=open;dashed=1;endSize=8;edgeStyle=elbowEdgeStyle;elbow=vertical;curved=0;rounded=0;" edge="1" parent="VadxN7hpMvlCymdNM9xu-1" target="VadxN7hpMvlCymdNM9xu-2">
          <mxGeometry relative="1" as="geometry">
            <mxPoint x="770" y="810" as="sourcePoint" />
            <mxPoint x="450" y="810" as="targetPoint" />
          </mxGeometry>
        </mxCell>
        <mxCell id="VadxN7hpMvlCymdNM9xu-21" value="&lt;font style=&quot;font-size: 14px;&quot;&gt;Message : Recette créée&lt;/font&gt;" style="html=1;verticalAlign=bottom;endArrow=open;dashed=1;endSize=8;edgeStyle=elbowEdgeStyle;elbow=vertical;curved=0;rounded=0;" edge="1" parent="VadxN7hpMvlCymdNM9xu-1" source="VadxN7hpMvlCymdNM9xu-3" target="VadxN7hpMvlCymdNM9xu-2">
          <mxGeometry relative="1" as="geometry">
            <mxPoint x="760" y="730" as="sourcePoint" />
            <mxPoint x="350" y="740" as="targetPoint" />
            <Array as="points">
              <mxPoint x="740" y="740" />
            </Array>
          </mxGeometry>
        </mxCell>
        <mxCell id="VadxN7hpMvlCymdNM9xu-24" value="&lt;font style=&quot;font-size: 14px;&quot;&gt;Envoie la demande de requête de suppression&lt;/font&gt;" style="html=1;verticalAlign=bottom;endArrow=block;edgeStyle=elbowEdgeStyle;elbow=vertical;curved=0;rounded=0;" edge="1" parent="VadxN7hpMvlCymdNM9xu-1" target="VadxN7hpMvlCymdNM9xu-4">
          <mxGeometry x="0.0598" width="80" relative="1" as="geometry">
            <mxPoint x="780" y="990" as="sourcePoint" />
            <mxPoint x="1280" y="1000" as="targetPoint" />
            <Array as="points">
              <mxPoint x="1290" y="940" />
              <mxPoint x="1190" y="940" />
              <mxPoint x="1200" y="930" />
              <mxPoint x="890" y="1020" />
              <mxPoint x="1200" y="990" />
            </Array>
            <mxPoint as="offset" />
          </mxGeometry>
        </mxCell>
        <mxCell id="VadxN7hpMvlCymdNM9xu-25" value="&lt;font style=&quot;font-size: 14px;&quot;&gt;Si c&#39;est OK&lt;/font&gt;" style="html=1;align=left;spacingLeft=2;endArrow=block;rounded=0;edgeStyle=orthogonalEdgeStyle;curved=0;rounded=0;" edge="1" parent="VadxN7hpMvlCymdNM9xu-1">
          <mxGeometry relative="1" as="geometry">
            <mxPoint x="1325" y="950" as="sourcePoint" />
            <Array as="points">
              <mxPoint x="1355" y="950" />
              <mxPoint x="1355" y="990" />
            </Array>
            <mxPoint x="1325" y="990" as="targetPoint" />
            <mxPoint as="offset" />
          </mxGeometry>
        </mxCell>
        <mxCell id="VadxN7hpMvlCymdNM9xu-26" value="&lt;font style=&quot;font-size: 14px;&quot;&gt;Message : OK&lt;/font&gt;" style="html=1;verticalAlign=bottom;endArrow=open;dashed=1;endSize=8;edgeStyle=elbowEdgeStyle;elbow=vertical;curved=0;rounded=0;" edge="1" parent="VadxN7hpMvlCymdNM9xu-1" source="VadxN7hpMvlCymdNM9xu-4" target="VadxN7hpMvlCymdNM9xu-3">
          <mxGeometry relative="1" as="geometry">
            <mxPoint x="1315" y="1020" as="sourcePoint" />
            <mxPoint x="810" y="1010" as="targetPoint" />
            <Array as="points">
              <mxPoint x="1180" y="1010" />
              <mxPoint x="1030" y="1020" />
              <mxPoint x="1220" y="1000" />
            </Array>
          </mxGeometry>
        </mxCell>
        <mxCell id="VadxN7hpMvlCymdNM9xu-27" value="&lt;font style=&quot;font-size: 14px;&quot;&gt;Message : Recette supprimée&lt;/font&gt;" style="html=1;verticalAlign=bottom;endArrow=open;dashed=1;endSize=8;edgeStyle=elbowEdgeStyle;elbow=vertical;curved=0;rounded=0;" edge="1" parent="VadxN7hpMvlCymdNM9xu-1" target="VadxN7hpMvlCymdNM9xu-2">
          <mxGeometry relative="1" as="geometry">
            <mxPoint x="770" y="1040" as="sourcePoint" />
            <mxPoint x="350" y="1040" as="targetPoint" />
          </mxGeometry>
        </mxCell>
        <mxCell id="VadxN7hpMvlCymdNM9xu-28" value="&lt;span style=&quot;font-size: 14px;&quot;&gt;Renvoie sur la page des recettes actualisée&lt;/span&gt;" style="html=1;verticalAlign=bottom;endArrow=open;dashed=1;endSize=8;edgeStyle=elbowEdgeStyle;elbow=vertical;curved=0;rounded=0;" edge="1" parent="VadxN7hpMvlCymdNM9xu-1" target="VadxN7hpMvlCymdNM9xu-2" source="VadxN7hpMvlCymdNM9xu-3">
          <mxGeometry relative="1" as="geometry">
            <mxPoint x="770" y="1130" as="sourcePoint" />
            <mxPoint x="350" y="1130" as="targetPoint" />
            <Array as="points">
              <mxPoint x="680" y="1080" />
              <mxPoint x="730" y="1110" />
            </Array>
          </mxGeometry>
        </mxCell>
        <mxCell id="VadxN7hpMvlCymdNM9xu-29" value="&lt;font style=&quot;font-size: 14px;&quot;&gt;Si c&#39;est NON&lt;/font&gt;" style="html=1;align=left;spacingLeft=2;endArrow=block;rounded=0;edgeStyle=orthogonalEdgeStyle;curved=0;rounded=0;" edge="1" parent="VadxN7hpMvlCymdNM9xu-1">
          <mxGeometry relative="1" as="geometry">
            <mxPoint x="1325" y="1090" as="sourcePoint" />
            <Array as="points">
              <mxPoint x="1355" y="1090" />
              <mxPoint x="1355" y="1130" />
            </Array>
            <mxPoint x="1325" y="1130" as="targetPoint" />
            <mxPoint as="offset" />
          </mxGeometry>
        </mxCell>
        <mxCell id="VadxN7hpMvlCymdNM9xu-30" value="&lt;font style=&quot;font-size: 14px;&quot;&gt;Message : Erreur&lt;/font&gt;" style="html=1;verticalAlign=bottom;endArrow=open;dashed=1;endSize=8;edgeStyle=elbowEdgeStyle;elbow=vertical;curved=0;rounded=0;" edge="1" parent="VadxN7hpMvlCymdNM9xu-1" source="VadxN7hpMvlCymdNM9xu-4">
          <mxGeometry relative="1" as="geometry">
            <mxPoint x="1315" y="1210" as="sourcePoint" />
            <mxPoint x="780" y="1150" as="targetPoint" />
            <Array as="points">
              <mxPoint x="1180" y="1150" />
              <mxPoint x="1030" y="1210" />
              <mxPoint x="1220" y="1190" />
            </Array>
          </mxGeometry>
        </mxCell>
        <mxCell id="VadxN7hpMvlCymdNM9xu-31" value="&lt;font style=&quot;font-size: 14px;&quot;&gt;Message : Erreur lors de la suppression d&#39;une recette&lt;/font&gt;" style="html=1;verticalAlign=bottom;endArrow=open;dashed=1;endSize=8;edgeStyle=elbowEdgeStyle;elbow=vertical;curved=0;rounded=0;" edge="1" parent="VadxN7hpMvlCymdNM9xu-1" target="VadxN7hpMvlCymdNM9xu-2">
          <mxGeometry relative="1" as="geometry">
            <mxPoint x="770" y="1170" as="sourcePoint" />
            <mxPoint x="350" y="1240" as="targetPoint" />
            <Array as="points">
              <mxPoint x="700" y="1170" />
            </Array>
          </mxGeometry>
        </mxCell>
        <mxCell id="bUG1Kt_SPbD6Oc7vvAbl-0" value="&lt;font style=&quot;font-size: 14px;&quot;&gt;Demande de suppression d&#39;une recette&lt;/font&gt;" style="html=1;verticalAlign=bottom;endArrow=block;edgeStyle=elbowEdgeStyle;elbow=vertical;curved=0;rounded=0;" edge="1" parent="VadxN7hpMvlCymdNM9xu-1" source="VadxN7hpMvlCymdNM9xu-2" target="VadxN7hpMvlCymdNM9xu-3">
          <mxGeometry width="80" relative="1" as="geometry">
            <mxPoint x="360" y="990" as="sourcePoint" />
            <mxPoint x="730" y="990" as="targetPoint" />
            <Array as="points">
              <mxPoint x="710" y="910" />
              <mxPoint x="680" y="990" />
            </Array>
          </mxGeometry>
        </mxCell>
      </root>
    </mxGraphModel>
  </diagram>
  <diagram name="Diagramme de séquence (3)" id="iTfy_fcqv228C4raBK7-">
    <mxGraphModel dx="2314" dy="1156" grid="1" gridSize="10" guides="1" tooltips="1" connect="1" arrows="1" fold="1" page="1" pageScale="1" pageWidth="827" pageHeight="1169" math="0" shadow="0">
      <root>
        <mxCell id="hCpPsxt9uQoVLKZUjXNo-0" />
        <mxCell id="hCpPsxt9uQoVLKZUjXNo-1" parent="hCpPsxt9uQoVLKZUjXNo-0" />
        <mxCell id="hCpPsxt9uQoVLKZUjXNo-2" value="" style="html=1;points=[];perimeter=orthogonalPerimeter;outlineConnect=0;targetShapes=umlLifeline;portConstraint=eastwest;newEdgeStyle={&quot;edgeStyle&quot;:&quot;elbowEdgeStyle&quot;,&quot;elbow&quot;:&quot;vertical&quot;,&quot;curved&quot;:0,&quot;rounded&quot;:0};movable=1;resizable=1;rotatable=1;deletable=1;editable=1;locked=0;connectable=1;" vertex="1" parent="hCpPsxt9uQoVLKZUjXNo-1">
          <mxGeometry x="315" y="240" width="10" height="1000" as="geometry" />
        </mxCell>
        <mxCell id="hCpPsxt9uQoVLKZUjXNo-3" value="" style="html=1;points=[];perimeter=orthogonalPerimeter;outlineConnect=0;targetShapes=umlLifeline;portConstraint=eastwest;newEdgeStyle={&quot;edgeStyle&quot;:&quot;elbowEdgeStyle&quot;,&quot;elbow&quot;:&quot;vertical&quot;,&quot;curved&quot;:0,&quot;rounded&quot;:0};movable=1;resizable=1;rotatable=1;deletable=1;editable=1;locked=0;connectable=1;" vertex="1" parent="hCpPsxt9uQoVLKZUjXNo-1">
          <mxGeometry x="770" y="240" width="10" height="1000" as="geometry" />
        </mxCell>
        <mxCell id="hCpPsxt9uQoVLKZUjXNo-4" value="" style="html=1;points=[];perimeter=orthogonalPerimeter;outlineConnect=0;targetShapes=umlLifeline;portConstraint=eastwest;newEdgeStyle={&quot;edgeStyle&quot;:&quot;elbowEdgeStyle&quot;,&quot;elbow&quot;:&quot;vertical&quot;,&quot;curved&quot;:0,&quot;rounded&quot;:0};movable=1;resizable=1;rotatable=1;deletable=1;editable=1;locked=0;connectable=1;" vertex="1" parent="hCpPsxt9uQoVLKZUjXNo-1">
          <mxGeometry x="1315" y="240" width="10" height="1000" as="geometry" />
        </mxCell>
        <mxCell id="hCpPsxt9uQoVLKZUjXNo-5" value="&lt;font style=&quot;font-size: 14px;&quot;&gt;Clique sur la page des tâches d&#39;une recette&lt;/font&gt;" style="html=1;verticalAlign=bottom;endArrow=block;edgeStyle=elbowEdgeStyle;elbow=vertical;curved=0;rounded=0;" edge="1" parent="hCpPsxt9uQoVLKZUjXNo-1" source="hCpPsxt9uQoVLKZUjXNo-2">
          <mxGeometry width="80" relative="1" as="geometry">
            <mxPoint x="450" y="290" as="sourcePoint" />
            <mxPoint x="770" y="290" as="targetPoint" />
            <Array as="points">
              <mxPoint x="690" y="290" />
            </Array>
          </mxGeometry>
        </mxCell>
        <mxCell id="hCpPsxt9uQoVLKZUjXNo-6" value="&lt;font style=&quot;font-size: 14px;&quot;&gt;Navigateur web&lt;/font&gt;" style="text;align=center;fontStyle=1;verticalAlign=middle;spacingLeft=3;spacingRight=3;strokeColor=none;rotatable=1;points=[[0,0.5],[1,0.5]];portConstraint=eastwest;html=1;movable=1;resizable=1;deletable=1;editable=1;locked=0;connectable=1;" vertex="1" parent="hCpPsxt9uQoVLKZUjXNo-1">
          <mxGeometry x="260" y="214" width="120" height="26" as="geometry" />
        </mxCell>
        <mxCell id="hCpPsxt9uQoVLKZUjXNo-7" value="&lt;font style=&quot;font-size: 14px;&quot;&gt;Application web&lt;/font&gt;" style="text;align=center;fontStyle=1;verticalAlign=middle;spacingLeft=3;spacingRight=3;strokeColor=none;rotatable=1;points=[[0,0.5],[1,0.5]];portConstraint=eastwest;html=1;movable=1;resizable=1;deletable=1;editable=1;locked=0;connectable=1;" vertex="1" parent="hCpPsxt9uQoVLKZUjXNo-1">
          <mxGeometry x="722.5" y="214" width="105" height="26" as="geometry" />
        </mxCell>
        <mxCell id="hCpPsxt9uQoVLKZUjXNo-8" value="&lt;font style=&quot;font-size: 14px;&quot;&gt;Base de données&lt;/font&gt;" style="text;align=center;fontStyle=1;verticalAlign=middle;spacingLeft=3;spacingRight=3;strokeColor=none;rotatable=1;points=[[0,0.5],[1,0.5]];portConstraint=eastwest;html=1;movable=1;resizable=1;deletable=1;editable=1;locked=0;connectable=1;" vertex="1" parent="hCpPsxt9uQoVLKZUjXNo-1">
          <mxGeometry x="1260" y="214" width="120" height="26" as="geometry" />
        </mxCell>
        <mxCell id="hCpPsxt9uQoVLKZUjXNo-9" value="&lt;font style=&quot;font-size: 14px;&quot;&gt;Affiche la page&lt;/font&gt;" style="html=1;verticalAlign=bottom;endArrow=open;dashed=1;endSize=8;edgeStyle=elbowEdgeStyle;elbow=vertical;curved=0;rounded=0;" edge="1" parent="hCpPsxt9uQoVLKZUjXNo-1" target="hCpPsxt9uQoVLKZUjXNo-2">
          <mxGeometry relative="1" as="geometry">
            <mxPoint x="770" y="330" as="sourcePoint" />
            <mxPoint x="450" y="330" as="targetPoint" />
          </mxGeometry>
        </mxCell>
        <mxCell id="hCpPsxt9uQoVLKZUjXNo-10" value="&lt;font style=&quot;font-size: 14px;&quot;&gt;Renvoie sur la page des tâches actualisée&lt;/font&gt;" style="html=1;verticalAlign=bottom;endArrow=open;dashed=1;endSize=8;edgeStyle=elbowEdgeStyle;elbow=vertical;curved=0;rounded=0;" edge="1" parent="hCpPsxt9uQoVLKZUjXNo-1" target="hCpPsxt9uQoVLKZUjXNo-2">
          <mxGeometry x="0.1892" relative="1" as="geometry">
            <mxPoint x="770" y="1020" as="sourcePoint" />
            <mxPoint x="450" y="1020" as="targetPoint" />
            <Array as="points">
              <mxPoint x="680" y="870" />
              <mxPoint x="680" y="900" />
              <mxPoint x="720" y="910" />
              <mxPoint x="720" y="900" />
              <mxPoint x="690" y="920" />
            </Array>
            <mxPoint as="offset" />
          </mxGeometry>
        </mxCell>
        <mxCell id="hCpPsxt9uQoVLKZUjXNo-11" value="&lt;font style=&quot;font-size: 14px;&quot;&gt;Clique sur la page d&#39;ajout d&#39;une tâche&lt;/font&gt;" style="html=1;verticalAlign=bottom;endArrow=block;edgeStyle=elbowEdgeStyle;elbow=vertical;curved=0;rounded=0;" edge="1" parent="hCpPsxt9uQoVLKZUjXNo-1" source="hCpPsxt9uQoVLKZUjXNo-2">
          <mxGeometry width="80" relative="1" as="geometry">
            <mxPoint x="450" y="380" as="sourcePoint" />
            <mxPoint x="770" y="380" as="targetPoint" />
            <Array as="points" />
          </mxGeometry>
        </mxCell>
        <mxCell id="hCpPsxt9uQoVLKZUjXNo-12" value="&lt;font style=&quot;font-size: 14px;&quot;&gt;Affiche la page&lt;/font&gt;" style="html=1;verticalAlign=bottom;endArrow=open;dashed=1;endSize=8;edgeStyle=elbowEdgeStyle;elbow=vertical;curved=0;rounded=0;" edge="1" parent="hCpPsxt9uQoVLKZUjXNo-1" target="hCpPsxt9uQoVLKZUjXNo-2">
          <mxGeometry relative="1" as="geometry">
            <mxPoint x="770" y="420" as="sourcePoint" />
            <mxPoint x="450" y="420" as="targetPoint" />
          </mxGeometry>
        </mxCell>
        <mxCell id="hCpPsxt9uQoVLKZUjXNo-13" value="&lt;font style=&quot;font-size: 14px;&quot;&gt;Vérifie si toutes les informations sont entrées&lt;/font&gt;" style="html=1;align=left;spacingLeft=2;endArrow=block;rounded=0;edgeStyle=orthogonalEdgeStyle;curved=0;rounded=0;" edge="1" parent="hCpPsxt9uQoVLKZUjXNo-1" source="hCpPsxt9uQoVLKZUjXNo-3" target="hCpPsxt9uQoVLKZUjXNo-3">
          <mxGeometry relative="1" as="geometry">
            <mxPoint x="780" y="460" as="sourcePoint" />
            <Array as="points">
              <mxPoint x="810" y="500" />
              <mxPoint x="810" y="540" />
            </Array>
            <mxPoint x="785" y="490" as="targetPoint" />
            <mxPoint as="offset" />
          </mxGeometry>
        </mxCell>
        <mxCell id="hCpPsxt9uQoVLKZUjXNo-14" value="&lt;font style=&quot;font-size: 14px;&quot;&gt;Entre les informations demandées&lt;/font&gt;" style="html=1;verticalAlign=bottom;endArrow=block;edgeStyle=elbowEdgeStyle;elbow=vertical;curved=0;rounded=0;" edge="1" parent="hCpPsxt9uQoVLKZUjXNo-1" source="hCpPsxt9uQoVLKZUjXNo-2">
          <mxGeometry width="80" relative="1" as="geometry">
            <mxPoint x="450" y="470" as="sourcePoint" />
            <mxPoint x="770" y="470" as="targetPoint" />
            <Array as="points" />
          </mxGeometry>
        </mxCell>
        <mxCell id="hCpPsxt9uQoVLKZUjXNo-15" value="&lt;font style=&quot;font-size: 14px;&quot;&gt;Si c&#39;est OK&lt;/font&gt;" style="html=1;align=left;spacingLeft=2;endArrow=block;rounded=0;edgeStyle=orthogonalEdgeStyle;curved=0;rounded=0;" edge="1" parent="hCpPsxt9uQoVLKZUjXNo-1">
          <mxGeometry relative="1" as="geometry">
            <mxPoint x="780" y="570" as="sourcePoint" />
            <Array as="points">
              <mxPoint x="810" y="570" />
              <mxPoint x="810" y="610" />
            </Array>
            <mxPoint x="780" y="610" as="targetPoint" />
            <mxPoint as="offset" />
          </mxGeometry>
        </mxCell>
        <mxCell id="hCpPsxt9uQoVLKZUjXNo-16" value="&lt;font style=&quot;font-size: 14px;&quot;&gt;Envoie les informations données par l&#39;utilisateur&lt;/font&gt;" style="html=1;verticalAlign=bottom;endArrow=block;edgeStyle=elbowEdgeStyle;elbow=vertical;curved=0;rounded=0;" edge="1" parent="hCpPsxt9uQoVLKZUjXNo-1" source="hCpPsxt9uQoVLKZUjXNo-3" target="hCpPsxt9uQoVLKZUjXNo-4">
          <mxGeometry width="80" relative="1" as="geometry">
            <mxPoint x="850" y="650" as="sourcePoint" />
            <mxPoint x="1310" y="650" as="targetPoint" />
            <Array as="points">
              <mxPoint x="1310" y="640" />
            </Array>
          </mxGeometry>
        </mxCell>
        <mxCell id="hCpPsxt9uQoVLKZUjXNo-17" value="&lt;font style=&quot;font-size: 14px;&quot;&gt;Les informations s&#39;enregistrent&lt;/font&gt;" style="html=1;align=left;spacingLeft=2;endArrow=block;rounded=0;edgeStyle=orthogonalEdgeStyle;curved=0;rounded=0;" edge="1" parent="hCpPsxt9uQoVLKZUjXNo-1">
          <mxGeometry relative="1" as="geometry">
            <mxPoint x="1325" y="660" as="sourcePoint" />
            <Array as="points">
              <mxPoint x="1355" y="660" />
              <mxPoint x="1355" y="700" />
            </Array>
            <mxPoint x="1325" y="700" as="targetPoint" />
            <mxPoint as="offset" />
          </mxGeometry>
        </mxCell>
        <mxCell id="hCpPsxt9uQoVLKZUjXNo-18" value="&lt;font style=&quot;font-size: 14px;&quot;&gt;Message : OK&lt;/font&gt;" style="html=1;verticalAlign=bottom;endArrow=open;dashed=1;endSize=8;edgeStyle=elbowEdgeStyle;elbow=vertical;curved=0;rounded=0;" edge="1" parent="hCpPsxt9uQoVLKZUjXNo-1" source="hCpPsxt9uQoVLKZUjXNo-4">
          <mxGeometry relative="1" as="geometry">
            <mxPoint x="1100" y="730" as="sourcePoint" />
            <mxPoint x="780" y="720" as="targetPoint" />
            <Array as="points">
              <mxPoint x="1030" y="720" />
              <mxPoint x="1220" y="700" />
            </Array>
          </mxGeometry>
        </mxCell>
        <mxCell id="hCpPsxt9uQoVLKZUjXNo-19" value="&lt;font style=&quot;font-size: 14px;&quot;&gt;Si c&#39;est NON&lt;/font&gt;" style="html=1;align=left;spacingLeft=2;endArrow=block;rounded=0;edgeStyle=orthogonalEdgeStyle;curved=0;rounded=0;" edge="1" parent="hCpPsxt9uQoVLKZUjXNo-1">
          <mxGeometry relative="1" as="geometry">
            <mxPoint x="780" y="750" as="sourcePoint" />
            <Array as="points">
              <mxPoint x="810" y="750" />
              <mxPoint x="810" y="790" />
            </Array>
            <mxPoint x="780" y="790" as="targetPoint" />
            <mxPoint as="offset" />
          </mxGeometry>
        </mxCell>
        <mxCell id="hCpPsxt9uQoVLKZUjXNo-20" value="&lt;font style=&quot;font-size: 14px;&quot;&gt;Message : Veillez remplir toutes les information demandées&lt;/font&gt;" style="html=1;verticalAlign=bottom;endArrow=open;dashed=1;endSize=8;edgeStyle=elbowEdgeStyle;elbow=vertical;curved=0;rounded=0;" edge="1" parent="hCpPsxt9uQoVLKZUjXNo-1" target="hCpPsxt9uQoVLKZUjXNo-2">
          <mxGeometry relative="1" as="geometry">
            <mxPoint x="770" y="810" as="sourcePoint" />
            <mxPoint x="450" y="810" as="targetPoint" />
          </mxGeometry>
        </mxCell>
        <mxCell id="hCpPsxt9uQoVLKZUjXNo-21" value="&lt;font style=&quot;font-size: 14px;&quot;&gt;Message : Tâche créée&lt;/font&gt;" style="html=1;verticalAlign=bottom;endArrow=open;dashed=1;endSize=8;edgeStyle=elbowEdgeStyle;elbow=vertical;curved=0;rounded=0;" edge="1" parent="hCpPsxt9uQoVLKZUjXNo-1" source="hCpPsxt9uQoVLKZUjXNo-3" target="hCpPsxt9uQoVLKZUjXNo-2">
          <mxGeometry relative="1" as="geometry">
            <mxPoint x="760" y="730" as="sourcePoint" />
            <mxPoint x="350" y="740" as="targetPoint" />
            <Array as="points">
              <mxPoint x="740" y="740" />
            </Array>
          </mxGeometry>
        </mxCell>
        <mxCell id="hCpPsxt9uQoVLKZUjXNo-22" value="&lt;font style=&quot;font-size: 14px;&quot;&gt;Envoie la demande de requête de suppression&lt;/font&gt;" style="html=1;verticalAlign=bottom;endArrow=block;edgeStyle=elbowEdgeStyle;elbow=vertical;curved=0;rounded=0;" edge="1" parent="hCpPsxt9uQoVLKZUjXNo-1" target="hCpPsxt9uQoVLKZUjXNo-4">
          <mxGeometry x="0.0598" width="80" relative="1" as="geometry">
            <mxPoint x="780" y="990" as="sourcePoint" />
            <mxPoint x="1280" y="1000" as="targetPoint" />
            <Array as="points">
              <mxPoint x="1290" y="940" />
              <mxPoint x="1190" y="940" />
              <mxPoint x="1200" y="930" />
              <mxPoint x="890" y="1020" />
              <mxPoint x="1200" y="990" />
            </Array>
            <mxPoint as="offset" />
          </mxGeometry>
        </mxCell>
        <mxCell id="hCpPsxt9uQoVLKZUjXNo-23" value="&lt;font style=&quot;font-size: 14px;&quot;&gt;Si c&#39;est OK&lt;/font&gt;" style="html=1;align=left;spacingLeft=2;endArrow=block;rounded=0;edgeStyle=orthogonalEdgeStyle;curved=0;rounded=0;" edge="1" parent="hCpPsxt9uQoVLKZUjXNo-1">
          <mxGeometry relative="1" as="geometry">
            <mxPoint x="1325" y="950" as="sourcePoint" />
            <Array as="points">
              <mxPoint x="1355" y="950" />
              <mxPoint x="1355" y="990" />
            </Array>
            <mxPoint x="1325" y="990" as="targetPoint" />
            <mxPoint as="offset" />
          </mxGeometry>
        </mxCell>
        <mxCell id="hCpPsxt9uQoVLKZUjXNo-24" value="&lt;font style=&quot;font-size: 14px;&quot;&gt;Message : OK&lt;/font&gt;" style="html=1;verticalAlign=bottom;endArrow=open;dashed=1;endSize=8;edgeStyle=elbowEdgeStyle;elbow=vertical;curved=0;rounded=0;" edge="1" parent="hCpPsxt9uQoVLKZUjXNo-1" source="hCpPsxt9uQoVLKZUjXNo-4" target="hCpPsxt9uQoVLKZUjXNo-3">
          <mxGeometry relative="1" as="geometry">
            <mxPoint x="1315" y="1020" as="sourcePoint" />
            <mxPoint x="810" y="1010" as="targetPoint" />
            <Array as="points">
              <mxPoint x="1180" y="1010" />
              <mxPoint x="1030" y="1020" />
              <mxPoint x="1220" y="1000" />
            </Array>
          </mxGeometry>
        </mxCell>
        <mxCell id="hCpPsxt9uQoVLKZUjXNo-25" value="&lt;font style=&quot;font-size: 14px;&quot;&gt;Message : Tâche supprimée&lt;/font&gt;" style="html=1;verticalAlign=bottom;endArrow=open;dashed=1;endSize=8;edgeStyle=elbowEdgeStyle;elbow=vertical;curved=0;rounded=0;" edge="1" parent="hCpPsxt9uQoVLKZUjXNo-1" target="hCpPsxt9uQoVLKZUjXNo-2">
          <mxGeometry relative="1" as="geometry">
            <mxPoint x="770" y="1040" as="sourcePoint" />
            <mxPoint x="350" y="1040" as="targetPoint" />
          </mxGeometry>
        </mxCell>
        <mxCell id="hCpPsxt9uQoVLKZUjXNo-26" value="&lt;span style=&quot;font-size: 14px;&quot;&gt;Renvoie sur la page des tâches actualisée&lt;/span&gt;" style="html=1;verticalAlign=bottom;endArrow=open;dashed=1;endSize=8;edgeStyle=elbowEdgeStyle;elbow=vertical;curved=0;rounded=0;" edge="1" parent="hCpPsxt9uQoVLKZUjXNo-1" source="hCpPsxt9uQoVLKZUjXNo-3" target="hCpPsxt9uQoVLKZUjXNo-2">
          <mxGeometry relative="1" as="geometry">
            <mxPoint x="770" y="1130" as="sourcePoint" />
            <mxPoint x="350" y="1130" as="targetPoint" />
            <Array as="points">
              <mxPoint x="680" y="1080" />
              <mxPoint x="730" y="1110" />
            </Array>
          </mxGeometry>
        </mxCell>
        <mxCell id="hCpPsxt9uQoVLKZUjXNo-27" value="&lt;font style=&quot;font-size: 14px;&quot;&gt;Si c&#39;est NON&lt;/font&gt;" style="html=1;align=left;spacingLeft=2;endArrow=block;rounded=0;edgeStyle=orthogonalEdgeStyle;curved=0;rounded=0;" edge="1" parent="hCpPsxt9uQoVLKZUjXNo-1">
          <mxGeometry relative="1" as="geometry">
            <mxPoint x="1325" y="1090" as="sourcePoint" />
            <Array as="points">
              <mxPoint x="1355" y="1090" />
              <mxPoint x="1355" y="1130" />
            </Array>
            <mxPoint x="1325" y="1130" as="targetPoint" />
            <mxPoint as="offset" />
          </mxGeometry>
        </mxCell>
        <mxCell id="hCpPsxt9uQoVLKZUjXNo-28" value="&lt;font style=&quot;font-size: 14px;&quot;&gt;Message : Erreur&lt;/font&gt;" style="html=1;verticalAlign=bottom;endArrow=open;dashed=1;endSize=8;edgeStyle=elbowEdgeStyle;elbow=vertical;curved=0;rounded=0;" edge="1" parent="hCpPsxt9uQoVLKZUjXNo-1" source="hCpPsxt9uQoVLKZUjXNo-4">
          <mxGeometry relative="1" as="geometry">
            <mxPoint x="1315" y="1210" as="sourcePoint" />
            <mxPoint x="780" y="1150" as="targetPoint" />
            <Array as="points">
              <mxPoint x="1180" y="1150" />
              <mxPoint x="1030" y="1210" />
              <mxPoint x="1220" y="1190" />
            </Array>
          </mxGeometry>
        </mxCell>
        <mxCell id="hCpPsxt9uQoVLKZUjXNo-29" value="&lt;font style=&quot;font-size: 14px;&quot;&gt;Message : Erreur lors de la suppression de la tâche&lt;/font&gt;" style="html=1;verticalAlign=bottom;endArrow=open;dashed=1;endSize=8;edgeStyle=elbowEdgeStyle;elbow=vertical;curved=0;rounded=0;" edge="1" parent="hCpPsxt9uQoVLKZUjXNo-1" target="hCpPsxt9uQoVLKZUjXNo-2">
          <mxGeometry relative="1" as="geometry">
            <mxPoint x="770" y="1170" as="sourcePoint" />
            <mxPoint x="350" y="1240" as="targetPoint" />
            <Array as="points">
              <mxPoint x="700" y="1170" />
            </Array>
          </mxGeometry>
        </mxCell>
        <mxCell id="hCpPsxt9uQoVLKZUjXNo-30" value="&lt;font style=&quot;font-size: 14px;&quot;&gt;Demande de suppression d&#39;une tâche&lt;/font&gt;" style="html=1;verticalAlign=bottom;endArrow=block;edgeStyle=elbowEdgeStyle;elbow=vertical;curved=0;rounded=0;" edge="1" parent="hCpPsxt9uQoVLKZUjXNo-1" source="hCpPsxt9uQoVLKZUjXNo-2" target="hCpPsxt9uQoVLKZUjXNo-3">
          <mxGeometry width="80" relative="1" as="geometry">
            <mxPoint x="360" y="990" as="sourcePoint" />
            <mxPoint x="730" y="990" as="targetPoint" />
            <Array as="points">
              <mxPoint x="710" y="910" />
              <mxPoint x="680" y="990" />
            </Array>
          </mxGeometry>
        </mxCell>
      </root>
    </mxGraphModel>
  </diagram>
  <diagram name="Diagramme de séquence (4)" id="ckhe1KHiSqlytBBNUIVr">
    <mxGraphModel dx="2314" dy="1150" grid="1" gridSize="10" guides="1" tooltips="1" connect="1" arrows="1" fold="1" page="1" pageScale="1" pageWidth="827" pageHeight="1169" math="0" shadow="0">
      <root>
        <mxCell id="phSVn6OA-jSIeXNUfELZ-0" />
        <mxCell id="phSVn6OA-jSIeXNUfELZ-1" parent="phSVn6OA-jSIeXNUfELZ-0" />
        <mxCell id="phSVn6OA-jSIeXNUfELZ-2" value="" style="html=1;points=[];perimeter=orthogonalPerimeter;outlineConnect=0;targetShapes=umlLifeline;portConstraint=eastwest;newEdgeStyle={&quot;edgeStyle&quot;:&quot;elbowEdgeStyle&quot;,&quot;elbow&quot;:&quot;vertical&quot;,&quot;curved&quot;:0,&quot;rounded&quot;:0};movable=1;resizable=1;rotatable=1;deletable=1;editable=1;locked=0;connectable=1;" parent="phSVn6OA-jSIeXNUfELZ-1" vertex="1">
          <mxGeometry x="315" y="240" width="10" height="400" as="geometry" />
        </mxCell>
        <mxCell id="phSVn6OA-jSIeXNUfELZ-3" value="" style="html=1;points=[];perimeter=orthogonalPerimeter;outlineConnect=0;targetShapes=umlLifeline;portConstraint=eastwest;newEdgeStyle={&quot;edgeStyle&quot;:&quot;elbowEdgeStyle&quot;,&quot;elbow&quot;:&quot;vertical&quot;,&quot;curved&quot;:0,&quot;rounded&quot;:0};movable=1;resizable=1;rotatable=1;deletable=1;editable=1;locked=0;connectable=1;" parent="phSVn6OA-jSIeXNUfELZ-1" vertex="1">
          <mxGeometry x="770" y="240" width="10" height="400" as="geometry" />
        </mxCell>
        <mxCell id="phSVn6OA-jSIeXNUfELZ-4" value="" style="html=1;points=[];perimeter=orthogonalPerimeter;outlineConnect=0;targetShapes=umlLifeline;portConstraint=eastwest;newEdgeStyle={&quot;edgeStyle&quot;:&quot;elbowEdgeStyle&quot;,&quot;elbow&quot;:&quot;vertical&quot;,&quot;curved&quot;:0,&quot;rounded&quot;:0};movable=1;resizable=1;rotatable=1;deletable=1;editable=1;locked=0;connectable=1;" parent="phSVn6OA-jSIeXNUfELZ-1" vertex="1">
          <mxGeometry x="1315" y="240" width="10" height="400" as="geometry" />
        </mxCell>
        <mxCell id="phSVn6OA-jSIeXNUfELZ-5" value="&lt;font style=&quot;font-size: 14px;&quot;&gt;Clique la page du diagramme de Gantt&lt;/font&gt;" style="html=1;verticalAlign=bottom;endArrow=block;edgeStyle=elbowEdgeStyle;elbow=vertical;curved=0;rounded=0;" parent="phSVn6OA-jSIeXNUfELZ-1" source="phSVn6OA-jSIeXNUfELZ-2" edge="1">
          <mxGeometry width="80" relative="1" as="geometry">
            <mxPoint x="450" y="290" as="sourcePoint" />
            <mxPoint x="770" y="290" as="targetPoint" />
            <Array as="points">
              <mxPoint x="690" y="290" />
            </Array>
          </mxGeometry>
        </mxCell>
        <mxCell id="phSVn6OA-jSIeXNUfELZ-6" value="&lt;font style=&quot;font-size: 14px;&quot;&gt;Navigateur web&lt;/font&gt;" style="text;align=center;fontStyle=1;verticalAlign=middle;spacingLeft=3;spacingRight=3;strokeColor=none;rotatable=1;points=[[0,0.5],[1,0.5]];portConstraint=eastwest;html=1;movable=1;resizable=1;deletable=1;editable=1;locked=0;connectable=1;" parent="phSVn6OA-jSIeXNUfELZ-1" vertex="1">
          <mxGeometry x="260" y="214" width="120" height="26" as="geometry" />
        </mxCell>
        <mxCell id="phSVn6OA-jSIeXNUfELZ-7" value="&lt;font style=&quot;font-size: 14px;&quot;&gt;Application web&lt;/font&gt;" style="text;align=center;fontStyle=1;verticalAlign=middle;spacingLeft=3;spacingRight=3;strokeColor=none;rotatable=1;points=[[0,0.5],[1,0.5]];portConstraint=eastwest;html=1;movable=1;resizable=1;deletable=1;editable=1;locked=0;connectable=1;" parent="phSVn6OA-jSIeXNUfELZ-1" vertex="1">
          <mxGeometry x="722.5" y="214" width="105" height="26" as="geometry" />
        </mxCell>
        <mxCell id="phSVn6OA-jSIeXNUfELZ-8" value="&lt;font style=&quot;font-size: 14px;&quot;&gt;Base de données&lt;/font&gt;" style="text;align=center;fontStyle=1;verticalAlign=middle;spacingLeft=3;spacingRight=3;strokeColor=none;rotatable=1;points=[[0,0.5],[1,0.5]];portConstraint=eastwest;html=1;movable=1;resizable=1;deletable=1;editable=1;locked=0;connectable=1;" parent="phSVn6OA-jSIeXNUfELZ-1" vertex="1">
          <mxGeometry x="1260" y="214" width="120" height="26" as="geometry" />
        </mxCell>
        <mxCell id="phSVn6OA-jSIeXNUfELZ-12" value="&lt;font style=&quot;font-size: 14px;&quot;&gt;Affiche le diagramme de Gantt avec les informations&lt;/font&gt;" style="html=1;verticalAlign=bottom;endArrow=open;dashed=1;endSize=8;edgeStyle=elbowEdgeStyle;elbow=vertical;curved=0;rounded=0;" parent="phSVn6OA-jSIeXNUfELZ-1" source="phSVn6OA-jSIeXNUfELZ-3" target="phSVn6OA-jSIeXNUfELZ-2" edge="1">
          <mxGeometry relative="1" as="geometry">
            <mxPoint x="770" y="420" as="sourcePoint" />
            <mxPoint x="450" y="420" as="targetPoint" />
            <Array as="points">
              <mxPoint x="730" y="470" />
              <mxPoint x="630" y="490" />
            </Array>
          </mxGeometry>
        </mxCell>
        <mxCell id="phSVn6OA-jSIeXNUfELZ-16" value="&lt;font style=&quot;font-size: 14px;&quot;&gt;Demande de lecture des tâches d&#39;une recette spécifique&lt;/font&gt;" style="html=1;verticalAlign=bottom;endArrow=block;edgeStyle=elbowEdgeStyle;elbow=vertical;curved=0;rounded=0;" parent="phSVn6OA-jSIeXNUfELZ-1" source="phSVn6OA-jSIeXNUfELZ-3" target="phSVn6OA-jSIeXNUfELZ-4" edge="1">
          <mxGeometry width="80" relative="1" as="geometry">
            <mxPoint x="850" y="650" as="sourcePoint" />
            <mxPoint x="1310" y="650" as="targetPoint" />
            <Array as="points">
              <mxPoint x="900" y="320" />
              <mxPoint x="1310" y="640" />
            </Array>
          </mxGeometry>
        </mxCell>
        <mxCell id="phSVn6OA-jSIeXNUfELZ-18" value="&lt;font style=&quot;font-size: 14px;&quot;&gt;Message : OK&lt;/font&gt;" style="html=1;verticalAlign=bottom;endArrow=open;dashed=1;endSize=8;edgeStyle=elbowEdgeStyle;elbow=vertical;curved=0;rounded=0;" parent="phSVn6OA-jSIeXNUfELZ-1" source="phSVn6OA-jSIeXNUfELZ-4" target="phSVn6OA-jSIeXNUfELZ-3" edge="1">
          <mxGeometry x="0.028" relative="1" as="geometry">
            <mxPoint x="1100" y="730" as="sourcePoint" />
            <mxPoint x="780" y="410" as="targetPoint" />
            <Array as="points">
              <mxPoint x="1250" y="400" />
              <mxPoint x="1270" y="390" />
              <mxPoint x="1220" y="410" />
              <mxPoint x="1030" y="720" />
              <mxPoint x="1220" y="700" />
            </Array>
            <mxPoint as="offset" />
          </mxGeometry>
        </mxCell>
        <mxCell id="phSVn6OA-jSIeXNUfELZ-23" value="&lt;font style=&quot;font-size: 14px;&quot;&gt;Si c&#39;est OK&lt;/font&gt;" style="html=1;align=left;spacingLeft=2;endArrow=block;rounded=0;edgeStyle=orthogonalEdgeStyle;curved=0;rounded=0;" parent="phSVn6OA-jSIeXNUfELZ-1" edge="1">
          <mxGeometry relative="1" as="geometry">
            <mxPoint x="1325" y="340" as="sourcePoint" />
            <Array as="points">
              <mxPoint x="1355" y="340" />
              <mxPoint x="1355" y="380" />
            </Array>
            <mxPoint x="1325" y="380" as="targetPoint" />
            <mxPoint as="offset" />
          </mxGeometry>
        </mxCell>
        <mxCell id="phSVn6OA-jSIeXNUfELZ-27" value="&lt;font style=&quot;font-size: 14px;&quot;&gt;Si c&#39;est NON&lt;/font&gt;" style="html=1;align=left;spacingLeft=2;endArrow=block;rounded=0;edgeStyle=orthogonalEdgeStyle;curved=0;rounded=0;" parent="phSVn6OA-jSIeXNUfELZ-1" edge="1">
          <mxGeometry relative="1" as="geometry">
            <mxPoint x="1325" y="490" as="sourcePoint" />
            <Array as="points">
              <mxPoint x="1355" y="490" />
              <mxPoint x="1355" y="530" />
            </Array>
            <mxPoint x="1325" y="530" as="targetPoint" />
            <mxPoint as="offset" />
          </mxGeometry>
        </mxCell>
        <mxCell id="phSVn6OA-jSIeXNUfELZ-28" value="&lt;font style=&quot;font-size: 14px;&quot;&gt;Message : Erreur&lt;/font&gt;" style="html=1;verticalAlign=bottom;endArrow=open;dashed=1;endSize=8;edgeStyle=elbowEdgeStyle;elbow=vertical;curved=0;rounded=0;" parent="phSVn6OA-jSIeXNUfELZ-1" source="phSVn6OA-jSIeXNUfELZ-4" edge="1">
          <mxGeometry relative="1" as="geometry">
            <mxPoint x="1315" y="1210" as="sourcePoint" />
            <mxPoint x="780" y="550" as="targetPoint" />
            <Array as="points">
              <mxPoint x="1220" y="550" />
              <mxPoint x="920" y="580" />
              <mxPoint x="1160" y="550" />
              <mxPoint x="1180" y="1150" />
              <mxPoint x="1030" y="1210" />
              <mxPoint x="1220" y="1190" />
            </Array>
          </mxGeometry>
        </mxCell>
        <mxCell id="phSVn6OA-jSIeXNUfELZ-29" value="&lt;font style=&quot;font-size: 14px;&quot;&gt;Message : Erreur lors de la recherche des informations&lt;/font&gt;" style="html=1;verticalAlign=bottom;endArrow=open;dashed=1;endSize=8;edgeStyle=elbowEdgeStyle;elbow=vertical;curved=0;rounded=0;" parent="phSVn6OA-jSIeXNUfELZ-1" source="phSVn6OA-jSIeXNUfELZ-3" target="phSVn6OA-jSIeXNUfELZ-2" edge="1">
          <mxGeometry relative="1" as="geometry">
            <mxPoint x="770" y="1170" as="sourcePoint" />
            <mxPoint x="350" y="1240" as="targetPoint" />
            <Array as="points">
              <mxPoint x="730" y="580" />
              <mxPoint x="720" y="570" />
              <mxPoint x="700" y="1170" />
            </Array>
          </mxGeometry>
        </mxCell>
        <mxCell id="rDuhsErT4qvYDY-SGiYg-1" value="&lt;font style=&quot;font-size: 14px;&quot;&gt;Envoie les données concernant les tâches&lt;/font&gt;" style="html=1;verticalAlign=bottom;endArrow=open;dashed=1;endSize=8;edgeStyle=elbowEdgeStyle;elbow=vertical;curved=0;rounded=0;" parent="phSVn6OA-jSIeXNUfELZ-1" source="phSVn6OA-jSIeXNUfELZ-4" edge="1">
          <mxGeometry x="0.028" relative="1" as="geometry">
            <mxPoint x="1220" y="440" as="sourcePoint" />
            <mxPoint x="780" y="440" as="targetPoint" />
            <Array as="points">
              <mxPoint x="1230" y="440" />
              <mxPoint x="1190" y="460" />
              <mxPoint x="1220" y="440" />
              <mxPoint x="1030" y="750" />
              <mxPoint x="1220" y="730" />
            </Array>
            <mxPoint as="offset" />
          </mxGeometry>
        </mxCell>
      </root>
    </mxGraphModel>
  </diagram>
  <diagram id="syqoFBlMhgqg_PObnlXq" name="MVC">
    <mxGraphModel dx="2314" dy="1156" grid="1" gridSize="10" guides="1" tooltips="1" connect="1" arrows="1" fold="1" page="1" pageScale="1" pageWidth="827" pageHeight="1169" math="0" shadow="0">
      <root>
        <mxCell id="0" />
        <mxCell id="1" parent="0" />
        <mxCell id="2A--SNOo1paGy5ezeykJ-2" value="&lt;font style=&quot;font-size: 18px;&quot;&gt;Vue&lt;/font&gt;" style="rounded=1;whiteSpace=wrap;html=1;" parent="1" vertex="1">
          <mxGeometry x="360" y="300" width="120" height="60" as="geometry" />
        </mxCell>
        <mxCell id="2A--SNOo1paGy5ezeykJ-3" value="&lt;font style=&quot;font-size: 18px;&quot;&gt;Contrôleur&lt;/font&gt;" style="rounded=1;whiteSpace=wrap;html=1;" parent="1" vertex="1">
          <mxGeometry x="360" y="500" width="120" height="60" as="geometry" />
        </mxCell>
        <mxCell id="2A--SNOo1paGy5ezeykJ-4" value="&lt;font style=&quot;font-size: 18px;&quot;&gt;Modèle&lt;/font&gt;" style="rounded=1;whiteSpace=wrap;html=1;" parent="1" vertex="1">
          <mxGeometry x="360" y="680" width="120" height="60" as="geometry" />
        </mxCell>
        <mxCell id="2A--SNOo1paGy5ezeykJ-5" value="" style="endArrow=classic;html=1;rounded=0;entryX=0.25;entryY=1;entryDx=0;entryDy=0;exitX=0.25;exitY=0;exitDx=0;exitDy=0;" parent="1" source="2A--SNOo1paGy5ezeykJ-4" target="2A--SNOo1paGy5ezeykJ-3" edge="1">
          <mxGeometry width="50" height="50" relative="1" as="geometry">
            <mxPoint x="280" y="730" as="sourcePoint" />
            <mxPoint x="330" y="680" as="targetPoint" />
          </mxGeometry>
        </mxCell>
        <mxCell id="raB5y7bkx-HopiJwpwnF-1" value="" style="endArrow=classic;html=1;rounded=0;entryX=0.25;entryY=1;entryDx=0;entryDy=0;exitX=0.25;exitY=0;exitDx=0;exitDy=0;" parent="1" source="2A--SNOo1paGy5ezeykJ-3" target="2A--SNOo1paGy5ezeykJ-2" edge="1">
          <mxGeometry width="50" height="50" relative="1" as="geometry">
            <mxPoint x="400" y="800" as="sourcePoint" />
            <mxPoint x="400" y="625" as="targetPoint" />
          </mxGeometry>
        </mxCell>
        <mxCell id="raB5y7bkx-HopiJwpwnF-2" value="" style="endArrow=classic;html=1;rounded=0;entryX=0.75;entryY=0;entryDx=0;entryDy=0;exitX=0.75;exitY=1;exitDx=0;exitDy=0;" parent="1" source="2A--SNOo1paGy5ezeykJ-2" target="2A--SNOo1paGy5ezeykJ-3" edge="1">
          <mxGeometry width="50" height="50" relative="1" as="geometry">
            <mxPoint x="670" y="485" as="sourcePoint" />
            <mxPoint x="670" y="290" as="targetPoint" />
          </mxGeometry>
        </mxCell>
        <mxCell id="raB5y7bkx-HopiJwpwnF-3" value="" style="endArrow=classic;html=1;rounded=0;entryX=0.75;entryY=0;entryDx=0;entryDy=0;exitX=0.75;exitY=1;exitDx=0;exitDy=0;" parent="1" source="2A--SNOo1paGy5ezeykJ-3" target="2A--SNOo1paGy5ezeykJ-4" edge="1">
          <mxGeometry width="50" height="50" relative="1" as="geometry">
            <mxPoint x="460" y="370" as="sourcePoint" />
            <mxPoint x="460" y="565" as="targetPoint" />
          </mxGeometry>
        </mxCell>
        <mxCell id="raB5y7bkx-HopiJwpwnF-4" value="&lt;font style=&quot;font-size: 18px;&quot;&gt;Données&lt;/font&gt;" style="text;html=1;strokeColor=none;fillColor=none;align=center;verticalAlign=middle;whiteSpace=wrap;rounded=0;" parent="1" vertex="1">
          <mxGeometry x="460" y="420" width="90" height="30" as="geometry" />
        </mxCell>
        <mxCell id="raB5y7bkx-HopiJwpwnF-5" value="&lt;font style=&quot;font-size: 18px;&quot;&gt;Actions&lt;/font&gt;" style="text;html=1;strokeColor=none;fillColor=none;align=center;verticalAlign=middle;whiteSpace=wrap;rounded=0;" parent="1" vertex="1">
          <mxGeometry x="290" y="420" width="90" height="30" as="geometry" />
        </mxCell>
        <mxCell id="raB5y7bkx-HopiJwpwnF-6" value="&lt;font style=&quot;font-size: 18px;&quot;&gt;Mises à jour du modèle&lt;/font&gt;" style="text;html=1;strokeColor=none;fillColor=none;align=center;verticalAlign=middle;whiteSpace=wrap;rounded=0;" parent="1" vertex="1">
          <mxGeometry x="250" y="590" width="130" height="60" as="geometry" />
        </mxCell>
        <mxCell id="raB5y7bkx-HopiJwpwnF-7" value="&lt;font style=&quot;font-size: 18px;&quot;&gt;Récupération de données&lt;/font&gt;" style="text;html=1;strokeColor=none;fillColor=none;align=center;verticalAlign=middle;whiteSpace=wrap;rounded=0;" parent="1" vertex="1">
          <mxGeometry x="460" y="590" width="130" height="60" as="geometry" />
        </mxCell>
      </root>
    </mxGraphModel>
  </diagram>
  <diagram id="wsI7aO3Irr11nGTTjuyp" name="Architecture logicielle">
    <mxGraphModel dx="2314" dy="1150" grid="1" gridSize="10" guides="1" tooltips="1" connect="1" arrows="1" fold="1" page="1" pageScale="1" pageWidth="827" pageHeight="1169" math="0" shadow="0">
      <root>
        <mxCell id="0" />
        <mxCell id="1" parent="0" />
        <mxCell id="HAJNvKXAEo93-bnYXky1-4" value="" style="group" parent="1" vertex="1" connectable="0">
          <mxGeometry x="580" y="140" width="690" height="320" as="geometry" />
        </mxCell>
        <mxCell id="Tw5qFUPS_Z6D6ClXP-MV-1" value="" style="rounded=1;whiteSpace=wrap;html=1;movable=1;resizable=1;rotatable=1;deletable=1;editable=1;locked=0;connectable=1;" parent="HAJNvKXAEo93-bnYXky1-4" vertex="1">
          <mxGeometry width="690" height="320" as="geometry" />
        </mxCell>
        <mxCell id="1DgDaGsLGCLgenZpRnK2-1" value="&lt;font style=&quot;&quot;&gt;&lt;span style=&quot;font-size: 14px;&quot;&gt;&lt;b&gt;Architecture&lt;/b&gt;&lt;/span&gt;&lt;b style=&quot;font-size: 14px;&quot;&gt;&amp;nbsp;Tâches Gourmandes&lt;/b&gt;&lt;/font&gt;" style="text;html=1;strokeColor=none;fillColor=none;align=center;verticalAlign=middle;whiteSpace=wrap;rounded=0;movable=1;resizable=1;rotatable=1;deletable=1;editable=1;locked=0;connectable=1;" parent="HAJNvKXAEo93-bnYXky1-4" vertex="1">
          <mxGeometry x="169.23500351864882" width="351.5299929627023" height="27.049873203719358" as="geometry" />
        </mxCell>
        <mxCell id="HAJNvKXAEo93-bnYXky1-1" value="" style="shape=image;html=1;verticalAlign=top;verticalLabelPosition=bottom;labelBackgroundColor=#ffffff;imageAspect=0;aspect=fixed;image=https://cdn0.iconfinder.com/data/icons/luisance_pack/128/ordinateur_portable_eteint.png" parent="HAJNvKXAEo93-bnYXky1-4" vertex="1">
          <mxGeometry x="40" y="75" width="170" height="170" as="geometry" />
        </mxCell>
        <mxCell id="HAJNvKXAEo93-bnYXky1-2" value="&lt;font style=&quot;font-size: 14px;&quot;&gt;&lt;b&gt;BACKEND&lt;/b&gt;&lt;br&gt;Node.JS&lt;/font&gt;" style="ellipse;shape=cloud;whiteSpace=wrap;html=1;" parent="HAJNvKXAEo93-bnYXky1-4" vertex="1">
          <mxGeometry x="310" y="97.5" width="160" height="115" as="geometry" />
        </mxCell>
        <mxCell id="HAJNvKXAEo93-bnYXky1-3" value="&lt;font style=&quot;font-size: 14px;&quot;&gt;&lt;b&gt;BDD&lt;/b&gt;&lt;/font&gt;" style="shape=cylinder3;whiteSpace=wrap;html=1;boundedLbl=1;backgroundOutline=1;size=15;" parent="HAJNvKXAEo93-bnYXky1-4" vertex="1">
          <mxGeometry x="560" y="105" width="90" height="100" as="geometry" />
        </mxCell>
        <mxCell id="HAJNvKXAEo93-bnYXky1-5" value="" style="endArrow=classic;html=1;rounded=0;exitX=1;exitY=0.25;exitDx=0;exitDy=0;entryX=0.07;entryY=0.4;entryDx=0;entryDy=0;entryPerimeter=0;" parent="HAJNvKXAEo93-bnYXky1-4" source="HAJNvKXAEo93-bnYXky1-1" target="HAJNvKXAEo93-bnYXky1-2" edge="1">
          <mxGeometry width="50" height="50" relative="1" as="geometry">
            <mxPoint x="140" y="-70" as="sourcePoint" />
            <mxPoint x="190" y="-120" as="targetPoint" />
          </mxGeometry>
        </mxCell>
        <mxCell id="HAJNvKXAEo93-bnYXky1-7" value="" style="endArrow=classic;html=1;rounded=0;exitX=0.13;exitY=0.77;exitDx=0;exitDy=0;entryX=1;entryY=0.75;entryDx=0;entryDy=0;exitPerimeter=0;" parent="HAJNvKXAEo93-bnYXky1-4" source="HAJNvKXAEo93-bnYXky1-2" target="HAJNvKXAEo93-bnYXky1-1" edge="1">
          <mxGeometry width="50" height="50" relative="1" as="geometry">
            <mxPoint x="220" y="128" as="sourcePoint" />
            <mxPoint x="331" y="154" as="targetPoint" />
          </mxGeometry>
        </mxCell>
        <mxCell id="HAJNvKXAEo93-bnYXky1-9" value="&lt;font style=&quot;font-size: 14px;&quot;&gt;GET / POST / DELETE&lt;/font&gt;" style="text;html=1;strokeColor=none;fillColor=none;align=center;verticalAlign=middle;whiteSpace=wrap;rounded=0;" parent="HAJNvKXAEo93-bnYXky1-4" vertex="1">
          <mxGeometry x="200" y="75" width="150" height="30" as="geometry" />
        </mxCell>
        <mxCell id="HAJNvKXAEo93-bnYXky1-10" value="&lt;span style=&quot;font-size: 14px;&quot;&gt;JSON&lt;/span&gt;" style="text;html=1;strokeColor=none;fillColor=none;align=center;verticalAlign=middle;whiteSpace=wrap;rounded=0;" parent="HAJNvKXAEo93-bnYXky1-4" vertex="1">
          <mxGeometry x="235" y="212.5" width="80" height="30" as="geometry" />
        </mxCell>
        <mxCell id="HAJNvKXAEo93-bnYXky1-11" value="" style="endArrow=classic;html=1;rounded=0;exitX=0.88;exitY=0.25;exitDx=0;exitDy=0;entryX=0;entryY=0;entryDx=0;entryDy=32.5;entryPerimeter=0;exitPerimeter=0;" parent="HAJNvKXAEo93-bnYXky1-4" source="HAJNvKXAEo93-bnYXky1-2" target="HAJNvKXAEo93-bnYXky1-3" edge="1">
          <mxGeometry width="50" height="50" relative="1" as="geometry">
            <mxPoint x="220" y="128" as="sourcePoint" />
            <mxPoint x="331" y="154" as="targetPoint" />
          </mxGeometry>
        </mxCell>
        <mxCell id="HAJNvKXAEo93-bnYXky1-13" value="" style="endArrow=classic;html=1;rounded=0;entryX=0.96;entryY=0.7;entryDx=0;entryDy=0;entryPerimeter=0;exitX=0.03;exitY=0.76;exitDx=0;exitDy=0;exitPerimeter=0;" parent="HAJNvKXAEo93-bnYXky1-4" source="HAJNvKXAEo93-bnYXky1-3" target="HAJNvKXAEo93-bnYXky1-2" edge="1">
          <mxGeometry width="50" height="50" relative="1" as="geometry">
            <mxPoint x="530" y="195" as="sourcePoint" />
            <mxPoint x="220" y="213" as="targetPoint" />
          </mxGeometry>
        </mxCell>
        <mxCell id="5ppd1RboCILhmEi_5aup-1" value="&lt;font style=&quot;font-size: 14px;&quot;&gt;Client&lt;/font&gt;" style="text;html=1;strokeColor=none;fillColor=none;align=center;verticalAlign=middle;whiteSpace=wrap;rounded=0;" parent="HAJNvKXAEo93-bnYXky1-4" vertex="1">
          <mxGeometry x="95" y="215" width="60" height="30" as="geometry" />
        </mxCell>
      </root>
    </mxGraphModel>
  </diagram>
</mxfile>
